<svg width="16" height="16" viewBox="0 0 16 16" fill="none" xmlns="http://www.w3.org/2000/svg">
<path d="M14.126 1.12395H12.3759V0H11.1258V1.12395H4.87534V0H3.62525V1.12395H1.87513C0.841184 1.12395 0 1.96514 0 2.99909V14.1249C0 15.1588 0.841184 16 1.87513 16H14.126C15.1599 16 16.0011 15.1588 16.0011 14.1249V2.99909C16.0011 1.96514 15.1599 1.12395 14.126 1.12395ZM14.751 14.1249C14.751 14.4695 14.4706 14.7499 14.126 14.7499H1.87513C1.53048 14.7499 1.25009 14.4695 1.25009 14.1249V6.12431H14.751V14.1249ZM14.751 4.87422H1.25009V2.99909C1.25009 2.65444 1.53048 2.37404 1.87513 2.37404H3.62525V3.62413H4.87534V2.37404H11.1258V3.62413H12.3759V2.37404H14.126C14.4706 2.37404 14.751 2.65444 14.751 2.99909V4.87422Z" fill="#111928" fill-opacity="0.6"/>
</svg>
