<svg width="28" height="28" viewBox="0 0 28 28" fill="none" xmlns="http://www.w3.org/2000/svg">
<rect width="28" height="28" rx="4" fill="#E7EEFF" fill-opacity="0.45"/>
<g clip-path="url(#clip0_24_2372)">
<g clip-path="url(#clip1_24_2372)">
<path d="M18.0625 12.6875C18.4077 12.6875 18.6875 12.4077 18.6875 12.0625C18.6875 11.7173 18.4077 11.4375 18.0625 11.4375C17.7173 11.4375 17.4375 11.7173 17.4375 12.0625C17.4375 12.4077 17.7173 12.6875 18.0625 12.6875Z" fill="#111928" fill-opacity="0.85"/>
<path d="M19.5 6.75H18.6875V6.125C18.6875 5.77981 18.4077 5.5 18.0625 5.5C17.7173 5.5 17.4375 5.77981 17.4375 6.125V6.75H14.5938V6.125C14.5938 5.77981 14.3139 5.5 13.9688 5.5C13.6236 5.5 13.3438 5.77981 13.3438 6.125V6.75H10.5312V6.125C10.5312 5.77981 10.2514 5.5 9.90625 5.5C9.56106 5.5 9.28125 5.77981 9.28125 6.125V6.75H8.5C7.1215 6.75 6 7.8715 6 9.25V19C6 20.3785 7.1215 21.5 8.5 21.5H13.2812C13.6264 21.5 13.9062 21.2202 13.9062 20.875C13.9062 20.5298 13.6264 20.25 13.2812 20.25H8.5C7.81075 20.25 7.25 19.6892 7.25 19V9.25C7.25 8.56075 7.81075 8 8.5 8H9.28125V8.625C9.28125 8.97019 9.56106 9.25 9.90625 9.25C10.2514 9.25 10.5312 8.97019 10.5312 8.625V8H13.3438V8.625C13.3438 8.97019 13.6236 9.25 13.9688 9.25C14.3139 9.25 14.5938 8.97019 14.5938 8.625V8H17.4375V8.625C17.4375 8.97019 17.7173 9.25 18.0625 9.25C18.4077 9.25 18.6875 8.97019 18.6875 8.625V8H19.5C20.1892 8 20.75 8.56075 20.75 9.25V12.8125C20.75 13.1577 21.0298 13.4375 21.375 13.4375C21.7202 13.4375 22 13.1577 22 12.8125V9.25C22 7.8715 20.8785 6.75 19.5 6.75Z" fill="#111928" fill-opacity="0.85"/>
<path d="M18.2188 13.9375C16.1337 13.9375 14.4375 15.6337 14.4375 17.7188C14.4375 19.8038 16.1337 21.5 18.2188 21.5C20.3038 21.5 22 19.8038 22 17.7188C22 15.6337 20.3038 13.9375 18.2188 13.9375ZM18.2188 20.25C16.823 20.25 15.6875 19.1145 15.6875 17.7188C15.6875 16.323 16.823 15.1875 18.2188 15.1875C19.6145 15.1875 20.75 16.323 20.75 17.7188C20.75 19.1145 19.6145 20.25 18.2188 20.25Z" fill="#111928" fill-opacity="0.85"/>
<path d="M19.125 17.0938H18.8438V16.4375C18.8438 16.0923 18.5639 15.8125 18.2188 15.8125C17.8736 15.8125 17.5938 16.0923 17.5938 16.4375V17.7188C17.5938 18.0639 17.8736 18.3438 18.2188 18.3438H19.125C19.4702 18.3438 19.75 18.0639 19.75 17.7188C19.75 17.3736 19.4702 17.0938 19.125 17.0938Z" fill="#111928" fill-opacity="0.85"/>
<path d="M15.3438 12.6875C15.6889 12.6875 15.9688 12.4077 15.9688 12.0625C15.9688 11.7173 15.6889 11.4375 15.3438 11.4375C14.9986 11.4375 14.7188 11.7173 14.7188 12.0625C14.7188 12.4077 14.9986 12.6875 15.3438 12.6875Z" fill="#111928" fill-opacity="0.85"/>
<path d="M12.625 15.4062C12.9702 15.4062 13.25 15.1264 13.25 14.7812C13.25 14.4361 12.9702 14.1562 12.625 14.1562C12.2798 14.1562 12 14.4361 12 14.7812C12 15.1264 12.2798 15.4062 12.625 15.4062Z" fill="#111928" fill-opacity="0.85"/>
<path d="M9.90625 12.6875C10.2514 12.6875 10.5312 12.4077 10.5312 12.0625C10.5312 11.7173 10.2514 11.4375 9.90625 11.4375C9.56107 11.4375 9.28125 11.7173 9.28125 12.0625C9.28125 12.4077 9.56107 12.6875 9.90625 12.6875Z" fill="#111928" fill-opacity="0.85"/>
<path d="M9.90625 15.4062C10.2514 15.4062 10.5312 15.1264 10.5312 14.7812C10.5312 14.4361 10.2514 14.1562 9.90625 14.1562C9.56107 14.1562 9.28125 14.4361 9.28125 14.7812C9.28125 15.1264 9.56107 15.4062 9.90625 15.4062Z" fill="#111928" fill-opacity="0.85"/>
<path d="M9.90625 18.125C10.2514 18.125 10.5312 17.8452 10.5312 17.5C10.5312 17.1548 10.2514 16.875 9.90625 16.875C9.56107 16.875 9.28125 17.1548 9.28125 17.5C9.28125 17.8452 9.56107 18.125 9.90625 18.125Z" fill="#111928" fill-opacity="0.85"/>
<path d="M12.625 18.125C12.9702 18.125 13.25 17.8452 13.25 17.5C13.25 17.1548 12.9702 16.875 12.625 16.875C12.2798 16.875 12 17.1548 12 17.5C12 17.8452 12.2798 18.125 12.625 18.125Z" fill="#111928" fill-opacity="0.85"/>
<path d="M12.625 12.6875C12.9702 12.6875 13.25 12.4077 13.25 12.0625C13.25 11.7173 12.9702 11.4375 12.625 11.4375C12.2798 11.4375 12 11.7173 12 12.0625C12 12.4077 12.2798 12.6875 12.625 12.6875Z" fill="#111928" fill-opacity="0.85"/>
</g>
</g>
<defs>
<clipPath id="clip0_24_2372">
<rect width="16" height="16" fill="white" transform="translate(6 6)"/>
</clipPath>
<clipPath id="clip1_24_2372">
<rect width="16" height="16" fill="white" transform="translate(6 5.5)"/>
</clipPath>
</defs>
</svg>
