<svg width="19" height="18" viewBox="0 0 19 18" fill="none" xmlns="http://www.w3.org/2000/svg">
<g clip-path="url(#clip0_24_8290)">
<mask id="path-1-inside-1_24_8290" fill="white">
<path d="M10.9209 4.10274C10.5775 4.0656 10.2287 4.04432 9.875 4.03902C8.32962 4.04588 6.72765 4.42178 5.21131 5.14206C4.08543 5.69889 2.98871 6.485 2.03626 7.45467C1.56848 7.94967 0.971465 8.6664 0.875 9.4311C0.8864 10.0935 1.59729 10.9112 2.03626 11.4076C2.9294 12.3392 3.99757 13.1028 5.21131 13.7202C5.25256 13.7402 5.29394 13.76 5.33544 13.7795L4.20936 15.746L5.73944 16.6503L14.0107 2.24982L12.5379 1.3497L10.9209 4.10274ZM14.4134 5.08493L13.2895 7.03278C13.8066 7.70451 14.1135 8.53287 14.1135 9.4311C14.1135 11.67 12.2157 13.4851 9.87389 13.4851C9.77266 13.4851 9.67454 13.4741 9.57506 13.4675L8.83128 14.7551C9.1743 14.7918 9.52114 14.8186 9.87498 14.8232C11.4218 14.8163 13.0229 14.436 14.5376 13.7202C15.6635 13.1633 16.7613 12.3772 17.7137 11.4076C18.1815 10.9126 18.7785 10.1958 18.875 9.4311C18.8636 8.76869 18.1527 7.95107 17.7137 7.45466C16.8206 6.52307 15.7513 5.75946 14.5376 5.14203C14.4966 5.12217 14.4547 5.10431 14.4134 5.08493ZM9.87391 5.37717C9.97659 5.37717 10.0785 5.38128 10.1793 5.38815L9.3081 6.89657C8.08539 7.14446 7.16796 8.18477 7.16796 9.43002C7.16796 9.74283 7.22558 10.0423 7.33166 10.3199C7.33178 10.3202 7.33154 10.3207 7.33166 10.321L6.45824 11.8338C5.93997 11.1615 5.63426 10.3304 5.63426 9.43109C5.63427 7.19226 7.53212 5.37716 9.87391 5.37717ZM12.4084 8.5577L10.4452 11.9591C11.6613 11.7065 12.5721 10.6709 12.5721 9.43002C12.5721 9.12291 12.5109 8.83094 12.4084 8.5577Z"/>
</mask>
<path d="M10.9209 4.10274L10.7596 5.59404L11.7234 5.69829L12.2143 4.86242L10.9209 4.10274ZM9.875 4.03902L9.89746 2.53919L9.8829 2.53897L9.86835 2.53904L9.875 4.03902ZM5.21131 5.14206L4.56771 3.78715L4.55697 3.79225L4.54632 3.79752L5.21131 5.14206ZM2.03626 7.45467L0.966136 6.40355L0.955986 6.41389L0.946038 6.42442L2.03626 7.45467ZM0.875 9.4311L-0.613206 9.24337L-0.626623 9.34973L-0.624778 9.45691L0.875 9.4311ZM2.03626 11.4076L0.912567 12.4012L0.93258 12.4238L0.953488 12.4456L2.03626 11.4076ZM5.21131 13.7202L4.53121 15.0571L4.54366 15.0635L4.55623 15.0696L5.21131 13.7202ZM5.33544 13.7795L6.63714 14.5249L7.44498 13.1141L5.97389 12.4221L5.33544 13.7795ZM4.20936 15.746L2.90767 15.0006L2.17246 16.2846L3.44617 17.0374L4.20936 15.746ZM5.73944 16.6503L4.97625 17.9416L6.28372 18.7144L7.04015 17.3974L5.73944 16.6503ZM14.0107 2.24982L15.3114 2.99691L16.0384 1.73114L14.7929 0.96993L14.0107 2.24982ZM12.5379 1.3497L13.3201 0.0698099L12.0176 -0.726249L11.2445 0.590026L12.5379 1.3497ZM14.4134 5.08493L15.0515 3.72738L13.8034 3.14081L13.1142 4.33527L14.4134 5.08493ZM13.2895 7.03278L11.9903 6.28313L11.4887 7.15242L12.1009 7.94772L13.2895 7.03278ZM9.57506 13.4675L9.67526 11.9708L8.74336 11.9084L8.27619 12.7172L9.57506 13.4675ZM8.83128 14.7551L7.53241 14.0048L6.37928 16.0011L8.67156 16.2466L8.83128 14.7551ZM9.87498 14.8232L9.8554 16.3231L9.86856 16.3232L9.88172 16.3232L9.87498 14.8232ZM14.5376 13.7202L15.1785 15.0763L15.1906 15.0706L15.2026 15.0647L14.5376 13.7202ZM17.7137 11.4076L18.7838 12.4587L18.794 12.4484L18.8039 12.4379L17.7137 11.4076ZM18.875 9.4311L20.3632 9.61886L20.3766 9.51249L20.3748 9.40529L18.875 9.4311ZM17.7137 7.45466L18.8374 6.46101L18.8174 6.43838L18.7965 6.41657L17.7137 7.45466ZM14.5376 5.14203L15.2177 3.80507L15.2049 3.79856L15.1919 3.79229L14.5376 5.14203ZM9.87391 5.37717L9.8739 6.87717H9.87391V5.37717ZM10.1793 5.38815L11.4782 6.13836L12.6814 4.05513L10.2813 3.89162L10.1793 5.38815ZM9.3081 6.89657L9.60615 8.36666L10.2688 8.23231L10.607 7.64678L9.3081 6.89657ZM7.33166 10.3199L8.73339 9.7859L8.73283 9.78444L7.33166 10.3199ZM7.33166 10.321L8.6307 11.071L8.98726 10.4534L8.73339 9.78701L7.33166 10.321ZM6.45824 11.8338L5.27022 12.7496L6.6375 14.5233L7.75728 12.5838L6.45824 11.8338ZM5.63426 9.43109L4.13426 9.43108V9.43109H5.63426ZM12.4084 8.5577L13.813 8.03121L12.6977 5.05586L11.1093 7.80785L12.4084 8.5577ZM10.4452 11.9591L9.14607 11.2092L7.4727 14.1084L10.7502 13.4277L10.4452 11.9591ZM11.0822 2.61144C10.6918 2.5692 10.2965 2.54516 9.89746 2.53919L9.85254 5.53885C10.1608 5.54347 10.4633 5.562 10.7596 5.59404L11.0822 2.61144ZM9.86835 2.53904C8.08678 2.54694 6.26835 2.97932 4.56771 3.78715L5.8549 6.49697C7.18696 5.86423 8.57247 5.54481 9.88165 5.53901L9.86835 2.53904ZM4.54632 3.79752C3.2686 4.42945 2.03521 5.31515 0.966136 6.40355L3.10637 8.50579C3.94221 7.65484 4.90227 6.96833 5.87629 6.4866L4.54632 3.79752ZM0.946038 6.42442C0.688593 6.69684 0.35201 7.07503 0.0603676 7.52174C-0.226097 7.96052 -0.52574 8.55001 -0.613206 9.24337L2.36321 9.61883C2.37221 9.54749 2.4193 9.39627 2.5724 9.16176C2.72033 8.93518 2.91614 8.7075 3.12647 8.48493L0.946038 6.42442ZM-0.624778 9.45691C-0.611225 10.2444 -0.215474 10.9216 0.0491614 11.3165C0.346074 11.7597 0.696581 12.157 0.912567 12.4012L3.15994 10.4139C2.93697 10.1618 2.71255 9.90202 2.54142 9.64663C2.45788 9.52195 2.40753 9.4279 2.38102 9.36521C2.35223 9.29716 2.37326 9.31721 2.37478 9.40529L-0.624778 9.45691ZM0.953488 12.4456C1.97838 13.5146 3.1884 14.3741 4.53121 15.0571L5.8914 12.3832C4.80673 11.8314 3.88042 11.1637 3.11902 10.3695L0.953488 12.4456ZM4.55623 15.0696C4.60301 15.0923 4.64994 15.1147 4.697 15.1368L5.97389 12.4221C5.93795 12.4052 5.90212 12.3881 5.86638 12.3708L4.55623 15.0696ZM4.03375 13.0341L2.90767 15.0006L5.51106 16.4914L6.63714 14.5249L4.03375 13.0341ZM3.44617 17.0374L4.97625 17.9416L6.50263 15.359L4.97256 14.4547L3.44617 17.0374ZM7.04015 17.3974L15.3114 2.99691L12.71 1.50273L4.43873 15.9032L7.04015 17.3974ZM14.7929 0.96993L13.3201 0.0698099L11.7557 2.62959L13.2285 3.52971L14.7929 0.96993ZM11.2445 0.590026L9.6275 3.34307L12.2143 4.86242L13.8313 2.10938L11.2445 0.590026ZM13.1142 4.33527L11.9903 6.28313L14.5888 7.78244L15.7127 5.83458L13.1142 4.33527ZM12.1009 7.94772C12.4279 8.37262 12.6135 8.88282 12.6135 9.4311H15.6135C15.6135 8.18292 15.1852 7.0364 14.4782 6.11784L12.1009 7.94772ZM12.6135 9.4311C12.6135 10.779 11.4512 11.9851 9.87389 11.9851V14.9851C12.9802 14.9851 15.6135 12.5609 15.6135 9.4311H12.6135ZM9.87389 11.9851C9.87526 11.9851 9.866 11.9851 9.83124 11.9826C9.81331 11.9813 9.79542 11.9799 9.76783 11.9777C9.7428 11.9757 9.71005 11.9732 9.67526 11.9708L9.47486 14.9641C9.48764 14.965 9.70648 14.9851 9.87389 14.9851V11.9851ZM8.27619 12.7172L7.53241 14.0048L10.1302 15.5054L10.8739 14.2178L8.27619 12.7172ZM8.67156 16.2466C9.04326 16.2864 9.43966 16.3176 9.8554 16.3231L9.89457 13.3233C9.60261 13.3195 9.30535 13.2973 8.99101 13.2636L8.67156 16.2466ZM9.88172 16.3232C11.667 16.3152 13.4835 15.8774 15.1785 15.0763L13.8967 12.364C12.5623 12.9946 11.1766 13.3173 9.86825 13.3232L9.88172 16.3232ZM15.2026 15.0647C16.4798 14.433 17.7144 13.5474 18.7838 12.4587L16.6436 10.3564C15.8081 11.207 14.8471 11.8937 13.8726 12.3756L15.2026 15.0647ZM18.8039 12.4379C19.0614 12.1654 19.398 11.7872 19.6896 11.3405C19.9761 10.9017 20.2757 10.3122 20.3632 9.61886L17.3868 9.24335C17.3778 9.31474 17.3307 9.46599 17.1776 9.70049C17.0297 9.92707 16.8338 10.1547 16.6235 10.3773L18.8039 12.4379ZM20.3748 9.40529C20.3612 8.61777 19.9655 7.94061 19.7008 7.54566C19.4039 7.10254 19.0534 6.70527 18.8374 6.46101L16.59 8.4483C16.813 8.70045 17.0374 8.96019 17.2086 9.21559C17.2921 9.34027 17.3425 9.43432 17.369 9.497C17.3978 9.56506 17.3767 9.545 17.3752 9.45691L20.3748 9.40529ZM18.7965 6.41657C17.7713 5.34723 16.56 4.48792 15.2177 3.80507L13.8575 6.47899C14.9426 7.031 15.8699 7.6989 16.631 8.49274L18.7965 6.41657ZM15.1919 3.79229C15.1514 3.77263 15.1144 3.75589 15.0928 3.74614C15.0659 3.734 15.0589 3.73086 15.0515 3.72738L13.7754 6.44247C13.8093 6.45838 13.8438 6.47385 13.8585 6.48046C13.8679 6.4847 13.8737 6.48733 13.8782 6.48941C13.8825 6.49139 13.8838 6.49205 13.8832 6.49178L15.1919 3.79229ZM9.87391 6.87717C9.9368 6.87717 10.0042 6.87969 10.0774 6.88468L10.2813 3.89162C10.1528 3.88287 10.0164 3.87717 9.87391 3.87717V6.87717ZM8.88041 4.63794L8.00919 6.14635L10.607 7.64678L11.4782 6.13836L8.88041 4.63794ZM9.01006 5.42647C7.14534 5.80452 5.66796 7.41434 5.66796 9.43002H8.66796C8.66796 8.95519 9.02545 8.48439 9.60615 8.36666L9.01006 5.42647ZM5.66796 9.43002C5.66796 9.92881 5.76014 10.4096 5.93049 10.8553L8.73283 9.78444C8.69102 9.67502 8.66796 9.55685 8.66796 9.43002H5.66796ZM5.92993 10.8539C5.87783 10.7171 5.85344 10.593 5.84193 10.495C5.83613 10.4457 5.83338 10.401 5.83229 10.3624C5.8312 10.3238 5.83173 10.2894 5.83288 10.2605C5.83403 10.2316 5.83587 10.2064 5.83771 10.186C5.83954 10.1656 5.84151 10.1484 5.84311 10.1355C5.84471 10.1226 5.84616 10.1123 5.84704 10.1062C5.84749 10.1031 5.84786 10.1006 5.84809 10.0991C5.84829 10.0977 5.84847 10.0965 5.84844 10.0967C5.84844 10.0967 5.84844 10.0967 5.84844 10.0967C5.84844 10.0967 5.84843 10.0968 5.84843 10.0968C5.84843 10.0968 5.84842 10.0968 5.84842 10.0969C5.8484 10.097 5.84838 10.0971 5.84835 10.0973C5.84829 10.0977 5.84819 10.0984 5.84807 10.0991C5.84785 10.1007 5.84747 10.1032 5.84701 10.1064C5.84613 10.1125 5.84467 10.1229 5.84307 10.1358C5.84146 10.1487 5.83948 10.166 5.83765 10.1865C5.83581 10.2069 5.83396 10.2322 5.83281 10.2611C5.83166 10.2901 5.83113 10.3244 5.83222 10.3631C5.83331 10.4018 5.83607 10.4465 5.84187 10.4959C5.85339 10.594 5.8778 10.7182 5.92993 10.855L8.73339 9.78701C8.78549 9.92376 8.80988 10.0479 8.82139 10.1459C8.82719 10.1952 8.82994 10.2399 8.83103 10.2785C8.83212 10.3171 8.83159 10.3515 8.83044 10.3804C8.82929 10.4093 8.82745 10.4345 8.82561 10.4549C8.82378 10.4753 8.82181 10.4925 8.82021 10.5054C8.81861 10.5183 8.81716 10.5286 8.81628 10.5347C8.81583 10.5378 8.81546 10.5403 8.81523 10.5418C8.81503 10.5432 8.81485 10.5444 8.81488 10.5442C8.81488 10.5442 8.81488 10.5442 8.81488 10.5442C8.81488 10.5442 8.81489 10.5442 8.81489 10.5441C8.81489 10.5441 8.8149 10.5441 8.8149 10.544C8.81492 10.5439 8.81494 10.5438 8.81497 10.5436C8.81503 10.5432 8.81513 10.5425 8.81524 10.5418C8.81547 10.5402 8.81585 10.5377 8.81631 10.5345C8.81719 10.5284 8.81865 10.518 8.82025 10.5051C8.82186 10.4922 8.82384 10.4749 8.82567 10.4544C8.82751 10.434 8.82936 10.4087 8.83051 10.3798C8.83166 10.3508 8.83219 10.3165 8.8311 10.2778C8.83001 10.2391 8.82725 10.1944 8.82145 10.145C8.80993 10.0469 8.78552 9.92273 8.73339 9.7859L5.92993 10.8539ZM6.03262 9.57101L5.1592 11.0838L7.75728 12.5838L8.6307 11.071L6.03262 9.57101ZM7.64626 10.9181C7.32018 10.495 7.13426 9.98289 7.13426 9.43109H4.13426C4.13426 10.6779 4.55977 11.8279 5.27022 12.7496L7.64626 10.9181ZM7.13426 9.4311C7.13427 8.0832 8.29662 6.87716 9.8739 6.87717L9.87391 3.87717C6.76762 3.87715 4.13428 6.30132 4.13426 9.43108L7.13426 9.4311ZM11.1093 7.80785L9.14607 11.2092L11.7443 12.7089L13.7076 9.30754L11.1093 7.80785ZM10.7502 13.4277C12.6041 13.0427 14.0721 11.4397 14.0721 9.43002H11.0721C11.0721 9.90223 10.7186 10.3703 10.1402 10.4904L10.7502 13.4277ZM14.0721 9.43002C14.0721 8.92033 13.97 8.45006 13.813 8.03121L11.0039 9.08418C11.0517 9.21181 11.0721 9.3255 11.0721 9.43002H14.0721Z" fill="#111928" fill-opacity="0.85" mask="url(#path-1-inside-1_24_8290)"/>
</g>
<defs>
<clipPath id="clip0_24_8290">
<rect width="18" height="18" fill="white" transform="translate(0.875)"/>
</clipPath>
</defs>
</svg>
