<svg width="95" height="27" viewBox="0 0 95 27" fill="none" xmlns="http://www.w3.org/2000/svg">
<path d="M0.988 26V0.799998H9.88C11.608 0.799998 13.132 1.136 14.452 1.808C15.772 2.48 16.804 3.416 17.548 4.616C18.292 5.792 18.664 7.16 18.664 8.72C18.664 10.28 18.268 11.66 17.476 12.86C16.708 14.06 15.64 15.008 14.272 15.704C12.904 16.376 11.356 16.712 9.628 16.712H5.164V26H0.988ZM14.956 26L9.052 15.776L12.292 13.544L19.672 26H14.956ZM5.164 12.86H10.06C10.876 12.86 11.596 12.68 12.22 12.32C12.868 11.96 13.384 11.468 13.768 10.844C14.176 10.22 14.38 9.512 14.38 8.72C14.38 7.52 13.948 6.536 13.084 5.768C12.22 5 11.104 4.616 9.736 4.616H5.164V12.86ZM35.2139 26L34.9979 22.688V8H38.9939V26H35.2139ZM22.7579 17.216V8H26.7899V17.216H22.7579ZM26.7899 17.216C26.7899 18.632 26.9579 19.736 27.2939 20.528C27.6299 21.32 28.0859 21.872 28.6619 22.184C29.2619 22.496 29.9459 22.652 30.7139 22.652C32.0819 22.676 33.1379 22.232 33.8819 21.32C34.6259 20.408 34.9979 19.1 34.9979 17.396H36.5099C36.5099 19.292 36.2219 20.924 35.6459 22.292C35.0939 23.636 34.3019 24.668 33.2699 25.388C32.2619 26.084 31.0379 26.432 29.5979 26.432C28.1819 26.432 26.9579 26.144 25.9259 25.568C24.9179 24.992 24.1379 24.092 23.5859 22.868C23.0339 21.644 22.7579 20.072 22.7579 18.152V17.216H26.7899ZM43.4742 26V8H47.2542L47.5062 11.312V26H43.4742ZM55.6782 26V16.784H59.7102V26H55.6782ZM55.6782 16.784C55.6782 15.344 55.5102 14.24 55.1742 13.472C54.8622 12.68 54.4062 12.128 53.8062 11.816C53.2302 11.504 52.5462 11.348 51.7542 11.348C50.4102 11.324 49.3662 11.768 48.6222 12.68C47.8782 13.592 47.5062 14.9 47.5062 16.604H45.9942C45.9942 14.708 46.2702 13.088 46.8222 11.744C47.3742 10.376 48.1662 9.344 49.1982 8.648C50.2302 7.928 51.4542 7.568 52.8702 7.568C54.3102 7.568 55.5342 7.856 56.5422 8.432C57.5742 9.008 58.3542 9.908 58.8822 11.132C59.4342 12.332 59.7102 13.904 59.7102 15.848V16.784H55.6782ZM71.8225 26.432C70.0705 26.432 68.5105 26.036 67.1425 25.244C65.7985 24.428 64.7305 23.312 63.9385 21.896C63.1705 20.48 62.7865 18.848 62.7865 17C62.7865 15.152 63.1825 13.52 63.9745 12.104C64.7665 10.688 65.8465 9.584 67.2145 8.792C68.6065 7.976 70.1905 7.568 71.9665 7.568C73.5745 7.568 75.0265 7.988 76.3225 8.828C77.6185 9.644 78.6385 10.832 79.3825 12.392C80.1505 13.952 80.5345 15.812 80.5345 17.972H66.3865L66.9265 17.468C66.9265 18.572 67.1665 19.532 67.6465 20.348C68.1265 21.14 68.7625 21.752 69.5545 22.184C70.3465 22.616 71.2225 22.832 72.1825 22.832C73.2865 22.832 74.1985 22.592 74.9185 22.112C75.6385 21.608 76.2025 20.96 76.6105 20.168L80.1745 21.68C79.6705 22.64 79.0225 23.48 78.2305 24.2C77.4625 24.92 76.5385 25.472 75.4585 25.856C74.4025 26.24 73.1905 26.432 71.8225 26.432ZM67.1785 15.38L66.6025 14.876H76.7545L76.2145 15.38C76.2145 14.396 75.9985 13.592 75.5665 12.968C75.1345 12.32 74.5825 11.84 73.9105 11.528C73.2625 11.192 72.5785 11.024 71.8585 11.024C71.1385 11.024 70.4185 11.192 69.6985 11.528C68.9785 11.84 68.3785 12.32 67.8985 12.968C67.4185 13.592 67.1785 14.396 67.1785 15.38ZM86.2866 16.424C86.2866 14.48 86.6586 12.884 87.4026 11.636C88.1466 10.388 89.1066 9.464 90.2826 8.864C91.4826 8.24 92.7306 7.928 94.0266 7.928V11.78C92.9226 11.78 91.8786 11.936 90.8946 12.248C89.9346 12.536 89.1546 13.016 88.5546 13.688C87.9546 14.36 87.6546 15.248 87.6546 16.352L86.2866 16.424ZM83.6226 26V8H87.6546V26H83.6226Z" fill="#1255FE"/>
</svg>
