<svg width="46" height="45" viewBox="0 0 46 45" fill="none" xmlns="http://www.w3.org/2000/svg">
<rect y="0.104736" width="44" height="44" rx="22" fill="white"/>
<path d="M19.5833 14.5002H15.9167C15.1343 14.5002 14.5 15.1345 14.5 15.9169V19.5836C14.5 20.366 15.1343 21.0002 15.9167 21.0002H19.5833C20.3657 21.0002 21 20.366 21 19.5836V15.9169C21 15.1345 20.3657 14.5002 19.5833 14.5002ZM28.75 14.5002H25.0833C24.3009 14.5002 23.6667 15.1345 23.6667 15.9169V19.5836C23.6667 20.366 24.3009 21.0002 25.0833 21.0002H28.75C29.5324 21.0002 30.1667 20.366 30.1667 19.5836V15.9169C30.1667 15.1345 29.5324 14.5002 28.75 14.5002ZM19.5833 23.6669H15.9167C15.1343 23.6669 14.5 24.3012 14.5 25.0836V28.7502C14.5 29.5326 15.1343 30.1669 15.9167 30.1669H19.5833C20.3657 30.1669 21 29.5326 21 28.7502V25.0836C21 24.3012 20.3657 23.6669 19.5833 23.6669ZM28.75 23.6669H25.0833C24.3009 23.6669 23.6667 24.3012 23.6667 25.0836V28.7502C23.6667 29.5326 24.3009 30.1669 25.0833 30.1669H28.75C29.5324 30.1669 30.1667 29.5326 30.1667 28.7502V25.0836C30.1667 24.3012 29.5324 23.6669 28.75 23.6669Z" fill="#797F87" stroke="#797F87" stroke-linecap="round" stroke-linejoin="round"/>
</svg>
