<svg width="16" height="16" viewBox="0 0 16 16" fill="none" xmlns="http://www.w3.org/2000/svg">
<g clip-path="url(#clip0_24_2903)">
<path d="M4.71875 3.75C4.71875 2.71613 3.87762 1.875 2.84375 1.875C1.80988 1.875 0.96875 2.71613 0.96875 3.75C0.96875 4.78387 1.80988 5.625 2.84375 5.625C3.87762 5.625 4.71875 4.78387 4.71875 3.75ZM2.84375 4.6875C2.32681 4.6875 1.90625 4.26694 1.90625 3.75C1.90625 3.23306 2.32681 2.8125 2.84375 2.8125C3.36069 2.8125 3.78125 3.23306 3.78125 3.75C3.78125 4.26694 3.36069 4.6875 2.84375 4.6875Z" fill="#434343"/>
<path d="M15.0312 3.75C15.0312 2.71613 14.1901 1.875 13.1562 1.875C12.1224 1.875 11.2812 2.71613 11.2812 3.75C11.2812 4.78387 12.1224 5.625 13.1562 5.625C14.1901 5.625 15.0312 4.78387 15.0312 3.75ZM13.1562 4.6875C12.6393 4.6875 12.2188 4.26694 12.2188 3.75C12.2188 3.23306 12.6393 2.8125 13.1562 2.8125C13.6732 2.8125 14.0938 3.23306 14.0938 3.75C14.0938 4.26694 13.6732 4.6875 13.1562 4.6875Z" fill="#434343"/>
<path d="M13.1562 5.625C12.2902 5.625 11.5145 6.01856 10.9982 6.63609C10.4863 5.48903 9.33506 4.6875 8 4.6875C6.66494 4.6875 5.51369 5.48903 5.00184 6.63609C4.4855 6.01856 3.70978 5.625 2.84375 5.625C1.28391 5.625 0 6.88819 0 8.4375V10.7812C0 11.0401 0.209875 11.25 0.46875 11.25H0.981469L1.40853 15.5773C1.43219 15.8172 1.63394 16 1.875 16H3.78125C4.02231 16 4.22406 15.8172 4.24772 15.5773L4.67478 11.25H6.24009L6.59534 15.5697C6.61531 15.8128 6.8185 16 7.0625 16H8.9375C9.1815 16 9.38469 15.8128 9.40466 15.5697L9.75994 11.25H11.3252L11.7522 15.5773C11.7759 15.8172 11.9777 16 12.2188 16H14.125C14.3661 16 14.5678 15.8172 14.5915 15.5773L15.0185 11.25H15.5312C15.7901 11.25 16 11.0401 16 10.7812V8.4375C16 6.89003 14.7177 5.625 13.1562 5.625ZM4.25 10.3125C4.00894 10.3125 3.80719 10.4953 3.78353 10.7352L3.35647 15.0625H2.29978L1.87272 10.7352C1.84906 10.4953 1.64731 10.3125 1.40625 10.3125H0.9375V8.4375C0.9375 7.40363 1.79262 6.5625 2.84375 6.5625C3.87762 6.5625 4.71875 7.40363 4.71875 8.4375V10.3125H4.25ZM9.32816 10.3125C9.08416 10.3125 8.88097 10.4997 8.861 10.7428L8.50572 15.0625H7.49428L7.13903 10.7428C7.11903 10.4997 6.91584 10.3125 6.67184 10.3125H5.65625V7.96875C5.65625 6.83691 6.46275 5.88994 7.53125 5.67216V7.96875C7.53125 8.22762 7.74113 8.4375 8 8.4375C8.25887 8.4375 8.46875 8.22762 8.46875 7.96875V5.67216C9.53725 5.88991 10.3438 6.83687 10.3438 7.96875V10.3125H9.32816ZM15.0625 10.3125H14.5938C14.3527 10.3125 14.1509 10.4953 14.1272 10.7352L13.7002 15.0625H12.6435L12.2165 10.7352C12.1928 10.4953 11.9911 10.3125 11.75 10.3125H11.2812V8.4375C11.2812 7.40363 12.1224 6.5625 13.1562 6.5625C14.2074 6.5625 15.0625 7.40363 15.0625 8.4375V10.3125Z" fill="#434343"/>
<path d="M10.3438 2.34375C10.3438 1.05141 9.29234 0 8 0C6.70766 0 5.65625 1.05141 5.65625 2.34375C5.65625 3.63609 6.70766 4.6875 8 4.6875C9.29234 4.6875 10.3438 3.63609 10.3438 2.34375ZM8 3.75C7.22459 3.75 6.59375 3.11916 6.59375 2.34375C6.59375 1.56834 7.22459 0.9375 8 0.9375C8.77541 0.9375 9.40625 1.56834 9.40625 2.34375C9.40625 3.11916 8.77541 3.75 8 3.75Z" fill="#434343"/>
</g>
<defs>
<clipPath id="clip0_24_2903">
<rect width="16" height="16" fill="white"/>
</clipPath>
</defs>
</svg>
