<svg width="16" height="12" viewBox="0 0 16 12" fill="none" xmlns="http://www.w3.org/2000/svg">
<path d="M5.33333 11.1429C5.33333 10.9155 5.40357 10.6975 5.5286 10.5368C5.65362 10.376 5.82319 10.2857 6 10.2857H10C10.1768 10.2857 10.3464 10.376 10.4714 10.5368C10.5964 10.6975 10.6667 10.9155 10.6667 11.1429C10.6667 11.3702 10.5964 11.5882 10.4714 11.7489C10.3464 11.9097 10.1768 12 10 12H6C5.82319 12 5.65362 11.9097 5.5286 11.7489C5.40357 11.5882 5.33333 11.3702 5.33333 11.1429ZM2.66667 6C2.66667 5.77267 2.7369 5.55465 2.86193 5.39391C2.98695 5.23316 3.15652 5.14286 3.33333 5.14286H12.6667C12.8435 5.14286 13.013 5.23316 13.1381 5.39391C13.2631 5.55465 13.3333 5.77267 13.3333 6C13.3333 6.22733 13.2631 6.44535 13.1381 6.60609C13.013 6.76684 12.8435 6.85714 12.6667 6.85714H3.33333C3.15652 6.85714 2.98695 6.76684 2.86193 6.60609C2.7369 6.44535 2.66667 6.22733 2.66667 6ZM0 0.857143C0 0.629814 0.070238 0.411797 0.195262 0.251051C0.320287 0.090306 0.489856 0 0.666667 0H15.3333C15.5101 0 15.6797 0.090306 15.8047 0.251051C15.9298 0.411797 16 0.629814 16 0.857143C16 1.08447 15.9298 1.30249 15.8047 1.46323C15.6797 1.62398 15.5101 1.71429 15.3333 1.71429H0.666667C0.489856 1.71429 0.320287 1.62398 0.195262 1.46323C0.070238 1.30249 0 1.08447 0 0.857143Z" fill="#1F2A37" fill-opacity="0.85"/>
</svg>
