<svg width="28" height="28" viewBox="0 0 28 28" fill="none" xmlns="http://www.w3.org/2000/svg">
<rect width="28" height="28" rx="4" fill="#E7EEFF" fill-opacity="0.45"/>
<g clip-path="url(#clip0_24_2615)">
<path d="M20.8734 14.9821H16.7755V13.4717C16.7755 13.2034 16.558 12.9858 16.2896 12.9858H11.7081C11.4398 12.9858 11.2222 13.2034 11.2222 13.4717V17.4602H7.1265C6.85817 17.4602 6.64062 17.6778 6.64062 17.9461V21.5142C6.64062 21.7825 6.85817 22 7.1265 22C7.91336 22 20.492 22 20.8734 22C21.1418 22 21.3593 21.7825 21.3593 21.5142V15.468C21.3593 15.1997 21.1418 14.9821 20.8734 14.9821ZM7.61238 18.432H11.2222V21.0283H7.61238V18.432ZM15.8038 21.0283H12.194C12.194 20.6818 12.194 14.3148 12.194 13.9576H15.8038V21.0283ZM20.3876 21.0283H16.7778V15.9539H20.3876V21.0283Z" fill="#434343"/>
<path d="M12.1566 9.49777L12.0862 10.8568C12.0678 11.2117 12.4238 11.4634 12.7509 11.3334L13.9999 10.837L15.2488 11.3334C15.5779 11.4641 15.9318 11.2098 15.9135 10.8568L15.8431 9.49777L16.6863 8.47368C16.9089 8.20317 16.7802 7.79193 16.4426 7.69708L15.1391 7.33086L14.4056 6.21821C14.214 5.92759 13.7863 5.92694 13.5942 6.21821L12.8607 7.33086L11.5572 7.69708C11.2199 7.79186 11.0906 8.20295 11.3135 8.47368L12.1566 9.49777ZM13.298 8.21736C13.4106 8.18575 13.5079 8.11461 13.5723 8.01702L13.9999 7.36841L14.4275 8.01702C14.4918 8.11461 14.5892 8.18575 14.7017 8.21736L15.4626 8.43111L14.973 9.02573C14.8959 9.11941 14.8566 9.23854 14.8629 9.35972L14.9039 10.1506L14.1794 9.86263C14.0641 9.81683 13.9357 9.81683 13.8204 9.86263L13.0959 10.1506L13.1369 9.35972C13.1431 9.23854 13.1039 9.11944 13.0267 9.02576L12.5372 8.43111L13.298 8.21736Z" fill="#434343"/>
<path d="M8.95386 11.1735L10.1174 10.6235C10.3601 10.5088 10.4637 10.2192 10.3491 9.9766C10.2344 9.73399 9.94473 9.63027 9.70218 9.74497L8.5386 10.295C8.29599 10.4096 8.1923 10.6993 8.30697 10.9419C8.42173 11.1847 8.71148 11.2881 8.95386 11.1735Z" fill="#434343"/>
<path d="M18.2987 8.19666L19.4386 7.65452C19.6809 7.53927 19.7839 7.2494 19.6687 7.00708C19.5534 6.76479 19.2635 6.66165 19.0212 6.77696L17.8813 7.3191C17.639 7.43435 17.536 7.72423 17.6512 7.96655C17.7666 8.20913 18.0566 8.31185 18.2987 8.19666Z" fill="#434343"/>
<path d="M8.5386 7.65499L9.70218 8.20501C9.94476 8.3197 10.2344 8.21595 10.3491 7.97337C10.4638 7.73079 10.3601 7.44114 10.1174 7.32648L8.95386 6.77646C8.71125 6.66177 8.42164 6.76548 8.30697 7.0081C8.1923 7.25068 8.29599 7.54033 8.5386 7.65499Z" fill="#434343"/>
<path d="M17.8813 10.6308L19.0212 11.1729C19.2636 11.2882 19.5535 11.1851 19.6687 10.9428C19.7839 10.7005 19.6809 10.4106 19.4386 10.2954L18.2987 9.75327C18.0563 9.63799 17.7664 9.74106 17.6512 9.98338C17.536 10.2257 17.639 10.5156 17.8813 10.6308Z" fill="#434343"/>
</g>
<defs>
<clipPath id="clip0_24_2615">
<rect width="16" height="16" fill="white" transform="translate(6 6)"/>
</clipPath>
</defs>
</svg>
