<svg width="28" height="28" viewBox="0 0 28 28" fill="none" xmlns="http://www.w3.org/2000/svg">
<rect width="28" height="28" rx="4" fill="#E7EEFF" fill-opacity="0.45"/>
<g clip-path="url(#clip0_24_2641)">
<path d="M18.7507 13.2266C18.9337 13.4097 19.2305 13.4097 19.4136 13.2266C19.5967 13.0436 19.5967 12.7468 19.4136 12.5637L15.4361 8.58627C15.2531 8.40321 14.9563 8.40321 14.7732 8.58627C14.5902 8.76933 14.5902 9.06612 14.7732 9.24918L15.1047 9.58065L14.182 10.5033C13.4389 11.2464 13.1212 12.2838 13.2819 13.2821C12.2835 13.1214 11.2461 13.4392 10.5031 14.1823L9.5804 15.1049L9.24893 14.7735C9.06587 14.5904 8.76909 14.5904 8.58603 14.7735C8.40296 14.9565 8.40296 15.2533 8.58603 15.4364L12.5635 19.4138C12.7466 19.5969 13.0433 19.5969 13.2264 19.4138C13.4095 19.2308 13.4095 18.934 13.2264 18.7509L12.8949 18.4195L13.8176 17.4968C14.5607 16.7538 14.8784 15.7165 14.7178 14.7182C14.8868 14.7454 15.057 14.7592 15.2267 14.7592C16.059 14.7591 16.8794 14.435 17.4966 13.8178L18.4192 12.8952L18.7507 13.2266ZM13.1547 16.8339L12.232 17.7566L10.2433 15.7678L11.1659 14.8452C11.8214 14.1896 12.8004 14.001 13.6463 14.3535C13.9988 15.1994 13.8102 16.1784 13.1547 16.8339ZM16.8337 13.1549C16.1782 13.8105 15.1992 13.999 14.3533 13.6466C14.0009 12.8007 14.1894 11.8217 14.8449 11.1662L15.7676 10.2435L17.7563 12.2323L16.8337 13.1549Z" fill="#434343"/>
<path d="M21.9999 14C21.9999 11.8631 21.1678 9.85416 19.6568 8.34312C18.1458 6.83216 16.1368 6 13.9999 6C12.8952 6 11.8244 6.22166 10.8174 6.65875C10.5799 6.76184 10.4709 7.03791 10.574 7.27537C10.6771 7.51284 10.9532 7.62178 11.1907 7.51872C12.0792 7.13306 13.0244 6.9375 13.9999 6.9375C17.8942 6.9375 21.0624 10.1057 21.0624 14C21.0624 15.4462 20.6351 16.8194 19.8229 17.997C19.662 17.9328 19.4868 17.8971 19.3032 17.8971C18.5278 17.8971 17.897 18.5279 17.897 19.3033C17.897 20.0787 18.5278 20.7096 19.3032 20.7096C20.0786 20.7096 20.7095 20.0787 20.7095 19.3033C20.7095 19.0552 20.6447 18.8222 20.5315 18.6196C21.4933 17.2652 21.9999 15.6758 21.9999 14ZM19.3032 19.7721C19.0448 19.7721 18.8345 19.5618 18.8345 19.3033C18.8345 19.0448 19.0448 18.8346 19.3032 18.8346C19.5617 18.8346 19.772 19.0448 19.772 19.3033C19.772 19.5618 19.5617 19.7721 19.3032 19.7721Z" fill="#434343"/>
<path d="M16.8092 20.4813C15.9207 20.867 14.9755 21.0626 14 21.0626C10.1057 21.0626 6.9375 17.8944 6.9375 14.0001C6.9375 12.5539 7.36481 11.1807 8.17697 10.0031C8.33788 10.0673 8.51312 10.103 8.69669 10.103C9.47209 10.103 10.1029 9.47218 10.1029 8.69678C10.1029 7.92137 9.47209 7.29053 8.69669 7.29053C7.92128 7.29053 7.29044 7.92137 7.29044 8.69678C7.29044 8.94481 7.35522 9.1779 7.46841 9.38043C6.50662 10.7349 6 12.3243 6 14.0001C6 16.137 6.83216 18.1459 8.34313 19.657C9.85416 21.1679 11.8631 22.0001 14 22.0001C15.1047 22.0001 16.1755 21.7784 17.1825 21.3413C17.42 21.2382 17.529 20.9622 17.4259 20.7247C17.3228 20.4872 17.0468 20.3783 16.8092 20.4813ZM8.69669 8.22803C8.95516 8.22803 9.16544 8.43831 9.16544 8.69678C9.16544 8.95525 8.95516 9.16553 8.69669 9.16553C8.43822 9.16553 8.22794 8.95525 8.22794 8.69678C8.22794 8.43831 8.43819 8.22803 8.69669 8.22803Z" fill="#434343"/>
</g>
<defs>
<clipPath id="clip0_24_2641">
<rect width="16" height="16" fill="white" transform="translate(6 6)"/>
</clipPath>
</defs>
</svg>
