<!-- src/LogoIcon.svg -->
<svg width="44" height="39" viewBox="0 0 44 39" fill="none" xmlns="http://www.w3.org/2000/svg">
   <g clip-path="url(#clip0_24_2915)">
      <path d="M18.9805 3.16894L23.3779 10.6578L27.6573 8.15293L22.8983 0H11.0009L0 19.0542L2.76314 23.839L14.3433 3.16894H18.9805Z" fill="#1255FE"/>
      <path d="M15.7637 29.9631L24.4257 29.9484L19.9951 22.5923L15.7637 29.9631Z" fill="#1255FE"/>
      <path d="M28.5352 9.6543L28.5684 20.7548H35.0095L28.5352 9.6543Z" fill="#1255FE"/>
      <path d="M10.4258 18.2238L20.1503 12.5426L16.8743 6.96094L10.4258 18.2238Z" fill="#1255FE"/>
      <path d="M11.0261 30.6935L15.7112 22.5405H7.95671L4.99805 27.709L11.0002 38.1049H32.9984L35.4111 33.9288L12.7858 33.9325L11.0261 30.6935Z" fill="#1255FE"/>
      <path d="M33 0H27.625L39.5187 20.3897L37.1208 24.4883H28.5805L28.5989 29.9297L37.7295 29.9187L44.001 19.0542L33 0Z" fill="#1255FE"/>
      <path d="M25.1164 13.6133L15.7129 19.1101H21.9069L25.1496 24.4925L25.1164 13.6133Z" fill="#184587"/>
   </g>
   <defs>
      <clipPath id="clip0_24_2915">
         <rect width="44" height="38.1048" fill="white"/>
      </clipPath>
   </defs>
</svg>
