<svg width="46" height="47" viewBox="0 0 46 47" fill="none" xmlns="http://www.w3.org/2000/svg">
<rect y="0.104736" width="46" height="46" rx="23" fill="white"/>
<path d="M26.1317 23.6047H29.4065H30.6588L29.7509 24.4672L27.3408 26.7568C27.2447 26.8527 27.1962 26.975 27.1973 27.0966C27.1984 27.2193 27.2501 27.3421 27.35 27.4371C27.4507 27.5327 27.5921 27.5912 27.7449 27.5924C27.8964 27.5937 28.038 27.5386 28.1405 27.4457L32.3474 23.4493C32.3474 23.4493 32.3474 23.4493 32.3474 23.4492C32.4484 23.3533 32.5 23.2288 32.5 23.1047C32.5 22.9807 32.4484 22.8562 32.3474 22.7602L26.1317 23.6047ZM26.1317 23.6047V22.6047H29.4065H30.6588L29.7509 21.7422L27.3372 19.4493C27.3372 19.4493 27.3372 19.4493 27.3372 19.4492C27.2362 19.3533 27.1846 19.2288 27.1846 19.1047C27.1846 18.9807 27.2362 18.8562 27.3371 18.7603C27.439 18.6635 27.5824 18.6049 27.737 18.6049C27.8916 18.6049 28.035 18.6635 28.1369 18.7602C28.1369 18.7603 28.1369 18.7603 28.1369 18.7603L32.3474 22.7602L26.1317 23.6047ZM25.1317 21.6047H20.3685C19.9648 21.6047 19.5727 21.7569 19.2798 22.0351C18.986 22.3142 18.8159 22.6984 18.8159 23.1047C18.8159 23.5111 18.986 23.8953 19.2798 24.1743C19.5727 24.4526 19.9648 24.6047 20.3685 24.6047H25.1317V30.1047C25.1317 30.7593 24.8583 31.3925 24.3624 31.8636C23.8657 32.3354 23.1868 32.6047 22.4738 32.6047H16.1579C15.445 32.6047 14.766 32.3354 14.2693 31.8636C13.7735 31.3925 13.5 30.7593 13.5 30.1047V16.1047C13.5 15.4502 13.7735 14.817 14.2693 14.3459C14.766 13.874 15.445 13.6047 16.1579 13.6047H22.4738C23.1868 13.6047 23.8657 13.874 24.3624 14.3459C24.8583 14.817 25.1317 15.4502 25.1317 16.1047V21.6047Z" fill="#797F87" stroke="#797F87"/>
</svg>
