<svg width="28" height="28" viewBox="0 0 28 28" fill="none" xmlns="http://www.w3.org/2000/svg">
<rect width="28" height="28" rx="4" fill="#E7EEFF" fill-opacity="0.45"/>
<g clip-path="url(#clip0_24_2356)">
<path d="M19.1948 6.32446H8.80518C7.25838 6.32446 6 7.58289 6 9.12968V15.538C6 17.0848 7.25838 18.3432 8.80518 18.3432L15.4228 18.3433L18.5907 21.5111C18.6981 21.6185 18.8415 21.6755 18.9876 21.6755C19.0598 21.6755 19.1327 21.6615 19.2021 21.6327C19.4117 21.5459 19.5485 21.3414 19.5485 21.1144V18.3211C20.929 18.1467 22 16.9651 22 15.538V9.12968C22 7.58289 20.7416 6.32446 19.1948 6.32446ZM20.8779 15.5381C20.8779 16.4662 20.1229 17.2212 19.1948 17.2212H18.9874C18.6776 17.2212 18.4264 17.4725 18.4264 17.7822V19.7599L16.052 17.3855C15.9467 17.2803 15.8041 17.2212 15.6552 17.2212H8.80518C7.87709 17.2212 7.12207 16.4662 7.12207 15.5381V9.12973C7.12207 8.20164 7.87709 7.44662 8.80518 7.44662H19.1948C20.1229 7.44662 20.8779 8.20164 20.8779 9.12973V15.5381Z" fill="#111928" fill-opacity="0.85"/>
<path d="M18.129 10.2971H9.87061C9.56078 10.2971 9.30957 10.5483 9.30957 10.8582C9.30957 11.168 9.56078 11.4192 9.87061 11.4192H18.129C18.4389 11.4192 18.6901 11.168 18.6901 10.8582C18.6901 10.5483 18.4389 10.2971 18.129 10.2971Z" fill="#111928" fill-opacity="0.85"/>
<path d="M18.129 13.439H9.87061C9.56078 13.439 9.30957 13.6901 9.30957 14C9.30957 14.3099 9.56078 14.561 9.87061 14.561H18.129C18.4389 14.561 18.6901 14.3098 18.6901 14C18.6901 13.6902 18.4389 13.439 18.129 13.439Z" fill="#111928" fill-opacity="0.85"/>
</g>
<defs>
<clipPath id="clip0_24_2356">
<rect width="16" height="16" fill="white" transform="translate(6 6)"/>
</clipPath>
</defs>
</svg>
