<svg width="36" height="36" viewBox="0 0 36 36" fill="none" xmlns="http://www.w3.org/2000/svg">
<circle cx="10" cy="18" r="3.5" fill="#ED4F9D" stroke="white"/>
<path d="M19.6667 13.8333C19.6667 13.2145 19.9126 12.621 20.3502 12.1834C20.7878 11.7458 21.3812 11.5 22.0001 11.5C22.6189 11.5 23.2124 11.7458 23.65 12.1834C24.0876 12.621 24.3334 13.2145 24.3334 13.8333C25.6732 14.4669 26.8154 15.453 27.6375 16.6862C28.4596 17.9193 28.9306 19.3529 29.0001 20.8333V24.3333C29.0879 25.0587 29.3448 25.7532 29.75 26.3611C30.1553 26.9691 30.6977 27.4733 31.3334 27.8333H12.6667C13.3025 27.4733 13.8449 26.9691 14.2501 26.3611C14.6554 25.7532 14.9123 25.0587 15.0001 24.3333V20.8333C15.0696 19.3529 15.5406 17.9193 16.3627 16.6862C17.1848 15.453 18.3269 14.4669 19.6667 13.8333" stroke="#1F2A37" stroke-opacity="0.6" stroke-width="1.5" stroke-linecap="round" stroke-linejoin="round"/>
<path d="M18.5 27.8333V28.9999C18.5 29.9282 18.8687 30.8184 19.5251 31.4748C20.1815 32.1312 21.0717 32.4999 22 32.4999C22.9283 32.4999 23.8185 32.1312 24.4749 31.4748C25.1313 30.8184 25.5 29.9282 25.5 28.9999V27.8333" stroke="#1F2A37" stroke-opacity="0.6" stroke-width="1.5" stroke-linecap="round" stroke-linejoin="round"/>
</svg>
