<svg width="19" height="18" viewBox="0 0 19 18" fill="none" xmlns="http://www.w3.org/2000/svg">
<path d="M13.75 7.875V14.3438C13.75 14.5284 13.7136 14.7113 13.643 14.8819C13.5723 15.0525 13.4687 15.2075 13.3381 15.3381C13.2075 15.4687 13.0525 15.5723 12.8819 15.643C12.7113 15.7136 12.5284 15.75 12.3438 15.75H3.90625C3.53329 15.75 3.1756 15.6018 2.91188 15.3381C2.64816 15.0744 2.5 14.7167 2.5 14.3438V5.90625C2.5 5.53329 2.64816 5.1756 2.91188 4.91188C3.1756 4.64816 3.53329 4.5 3.90625 4.5H9.79422M12.0625 2.25H16V6.1875M8.125 10.125L15.7188 2.53125" stroke="#111928" stroke-opacity="0.85" stroke-width="1.6875" stroke-linecap="round" stroke-linejoin="round"/>
</svg>
