<svg width="17" height="17" viewBox="0 0 17 17" fill="none" xmlns="http://www.w3.org/2000/svg">
<path d="M10.3557 15.1439C10.3557 16.1675 9.52359 17 8.49988 17C7.47672 17 6.64404 16.1675 6.64404 15.1439C6.64404 14.1203 7.47668 13.2878 8.49988 13.2878C9.52359 13.2878 10.3557 14.1203 10.3557 15.1439Z" fill="#1F2A37" fill-opacity="0.85"/>
<path d="M10.3557 8.60434C10.3557 9.62791 9.52359 10.4604 8.49988 10.4604C7.47672 10.4604 6.64404 9.62791 6.64404 8.60434C6.64404 7.58095 7.47668 6.74823 8.49988 6.74823C9.52359 6.74828 10.3557 7.58095 10.3557 8.60434Z" fill="#1F2A37" fill-opacity="0.85"/>
<path d="M10.3557 1.85605C10.3557 2.87944 9.52359 3.71216 8.49988 3.71216C7.47672 3.71216 6.64404 2.87948 6.64404 1.85605C6.64404 0.832618 7.47668 -5.81741e-05 8.49988 -5.81741e-05C9.52359 -5.81741e-05 10.3557 0.832618 10.3557 1.85605Z" fill="#1F2A37" fill-opacity="0.85"/>
</svg>
