<svg width="46" height="45" viewBox="0 0 46 45" fill="none" xmlns="http://www.w3.org/2000/svg">
<rect y="0.104736" width="44" height="44" rx="22" fill="white"/>
<path d="M13.1219 14.635H13.121C12.9741 14.6346 12.8546 14.7536 12.8545 14.9006C12.8543 15.0476 12.9731 15.1671 13.1202 15.1672H13.1211C13.268 15.1674 13.3873 15.0483 13.3875 14.9013C13.3879 14.7545 13.2689 14.6352 13.1219 14.635Z" fill="#797F87"/>
<path d="M27.9999 22.1047C26.783 22.1059 25.6326 22.6604 24.8737 23.6117C24.1148 24.5631 23.8299 25.8078 24.0995 26.9944C24.1094 27.0379 24.12 27.0813 24.1314 27.1245C24.6608 29.1316 26.638 30.4004 28.6837 30.0453C30.7292 29.6903 32.1632 27.8296 31.9851 25.7614C31.807 23.6933 30.0761 22.1051 27.9999 22.1047ZM28.8729 24.8531H29.4284C29.5863 24.8531 29.7141 24.981 29.7141 25.1388C29.7141 25.2964 29.5863 25.4245 29.4284 25.4245H28.8729C28.7352 26.1352 28.1132 26.649 27.389 26.65H27.2897L28.8109 28.0874C28.8854 28.1573 28.9168 28.2618 28.8932 28.3612C28.8696 28.4607 28.7947 28.5399 28.6968 28.569C28.5987 28.5982 28.4927 28.5729 28.4186 28.5025L26.3752 26.5721C26.2901 26.4917 26.2627 26.3675 26.3059 26.2588C26.3491 26.1501 26.4543 26.0786 26.5714 26.0786H27.389C27.7979 26.0781 28.1598 25.8138 28.2845 25.4245H26.5714C26.4136 25.4245 26.2856 25.2964 26.2856 25.1388C26.2856 24.981 26.4136 24.8531 26.5714 24.8531H28.2845C28.1598 24.4637 27.7979 24.1992 27.389 24.1987H26.5714C26.4136 24.1987 26.2856 24.071 26.2856 23.9131C26.2856 23.7553 26.4136 23.6274 26.5714 23.6274H29.4284C29.5863 23.6274 29.7141 23.7553 29.7141 23.9131C29.7141 24.071 29.5863 24.1987 29.4284 24.1987H28.5714C28.7233 24.3892 28.8268 24.6139 28.8729 24.8531Z" fill="#797F87"/>
<path d="M23.0528 22.3995C22.1456 23.5339 21.6966 24.9588 21.7796 26.3954H13.2677C12.6724 26.3948 12.1897 25.9123 12.189 25.3168V17.6738H26.7809V20.2615C25.318 20.4751 23.9833 21.2358 23.0528 22.3995Z" fill="#797F87" stroke="#797F87"/>
<path d="M18.5211 14.6516H18.5201C18.3731 14.6515 18.2537 14.7705 18.2534 14.9173C18.2533 15.0643 18.3723 15.1837 18.5193 15.1838H18.5201C18.6672 15.1841 18.7865 15.0652 18.7867 14.9182C18.7868 14.7712 18.6679 14.6518 18.5211 14.6516Z" fill="#797F87"/>
<path d="M27.2809 14.8615C27.2799 13.9902 26.5739 13.2841 25.7025 13.2832H13.2672C12.3961 13.2842 11.6899 13.9902 11.689 14.8615V16.5042H27.2809V14.8615ZM14.0565 14.9039C14.0543 15.4191 13.6361 15.8357 13.1208 15.8365H13.1178C12.601 15.8357 12.1828 15.4161 12.1835 14.8992C12.1842 14.3825 12.6039 13.9641 13.1207 13.9651H13.1237C13.64 13.9674 14.0573 14.3871 14.0562 14.9036L14.0565 14.9039ZM16.7559 14.9123C16.7536 15.4275 16.3355 15.8444 15.8204 15.845H15.8171C15.3029 15.8407 14.8886 15.4219 14.8893 14.9078C14.8901 14.3934 15.3058 13.9763 15.8201 13.9735H15.8229C16.3396 13.9757 16.7569 14.3955 16.7559 14.9122V14.9123ZM19.4556 14.9207C19.4532 15.4362 19.0351 15.8528 18.5197 15.8534H18.5167C18.0001 15.8519 17.5824 15.4315 17.5839 14.9147C17.5857 14.3979 18.0061 13.9802 18.5227 13.9819C19.0397 13.9835 19.4572 14.4039 19.4556 14.9207Z" fill="#797F87"/>
<path d="M15.8214 14.6433H15.8207C15.6749 14.645 15.5578 14.7634 15.5576 14.909C15.5572 15.0547 15.6741 15.1734 15.8196 15.1757H15.8207C15.9663 15.1739 16.0834 15.0556 16.0837 14.9098C16.0839 14.7641 15.9671 14.6456 15.8214 14.6433Z" fill="#797F87"/>
</svg>
