<svg width="19" height="18" viewBox="0 0 19 18" fill="none" xmlns="http://www.w3.org/2000/svg">
<path d="M3.96875 4.875V5.375H4.46875H7.09375C7.16005 5.375 7.22364 5.40134 7.27053 5.44822C7.31741 5.49511 7.34375 5.5587 7.34375 5.625C7.34375 5.6913 7.31741 5.75489 7.27053 5.80178L7.62408 6.15533L7.27053 5.80178C7.22364 5.84866 7.16005 5.875 7.09375 5.875H3.71875C3.65245 5.875 3.58886 5.84866 3.54197 5.80178C3.49509 5.75489 3.46875 5.6913 3.46875 5.625V2.25C3.46875 2.1837 3.49509 2.12011 3.54197 2.07322C3.58886 2.02634 3.65245 2 3.71875 2C3.78505 2 3.84864 2.02634 3.89553 2.07322C3.94241 2.12011 3.96875 2.1837 3.96875 2.25V4.875Z" stroke="#111928" stroke-opacity="0.85"/>
<path d="M3.56908 5.50017L3.5688 5.50067C3.53558 5.55806 3.52651 5.6263 3.54361 5.69037C3.5607 5.75445 3.60254 5.8091 3.65993 5.84233C3.71732 5.87555 3.78556 5.88461 3.84963 5.86752C3.91359 5.85046 3.96817 5.80873 4.00141 5.7515C4.71629 4.51264 5.82005 3.54434 7.14144 2.99685C8.46294 2.4493 9.92822 2.35324 11.3099 2.72357C12.6916 3.0939 13.9124 3.90991 14.7829 5.04498C15.6534 6.17999 16.1249 7.57056 16.1243 9.00093L3.56908 5.50017ZM3.56908 5.50017C4.33923 4.16619 5.5281 3.12365 6.95123 2.5343C8.37437 1.94495 9.95222 1.84173 11.44 2.24066C12.9278 2.63959 14.2423 3.51836 15.1797 4.74065C16.1171 5.96294 16.6249 7.46041 16.6243 9.00075V9.00093M3.56908 5.50017L16.6243 9.00093M16.6243 9.00093C16.6243 9.06724 16.598 9.13082 16.5511 9.17771C16.5042 9.22459 16.4406 9.25093 16.3743 9.25093C16.308 9.25093 16.2444 9.22459 16.1975 9.17771M16.6243 9.00093L16.1975 9.17771M16.1975 9.17771C16.1507 9.13087 16.1244 9.06737 16.1243 9.00115L16.1975 9.17771ZM15.2806 13.1259V12.6259H14.7806H12.1556C12.0893 12.6259 12.0257 12.5996 11.9788 12.5527C11.9319 12.5058 11.9056 12.4422 11.9056 12.3759C11.9056 12.3096 11.9319 12.246 11.9788 12.1992C12.0257 12.1523 12.0893 12.1259 12.1556 12.1259H15.5306C15.5969 12.1259 15.6605 12.1523 15.7073 12.1992C15.7542 12.246 15.7806 12.3096 15.7806 12.3759V15.7509C15.7806 15.8172 15.7542 15.8808 15.7073 15.9277C15.6605 15.9746 15.5969 16.0009 15.5306 16.0009C15.4643 16.0009 15.4007 15.9746 15.3538 15.9277C15.3069 15.8808 15.2806 15.8172 15.2806 15.7509V13.1259Z" stroke="#111928" stroke-opacity="0.85"/>
<path d="M4.67745 13.9476C5.98968 15.2598 7.76885 15.9979 9.6246 16C10.8517 15.9967 12.0565 15.6718 13.119 15.0579C14.1818 14.4438 15.065 13.5618 15.6807 12.5C15.697 12.4716 15.7077 12.4403 15.712 12.4079C15.7163 12.3754 15.7142 12.3423 15.7057 12.3106L16.1888 12.1817L15.7057 12.3106C15.6972 12.2788 15.6826 12.2491 15.6627 12.223C15.6427 12.1969 15.6178 12.1751 15.5894 12.1586C15.561 12.1422 15.5296 12.1315 15.497 12.1271C15.4645 12.1228 15.4314 12.1249 15.3997 12.1334C15.368 12.1419 15.3382 12.1565 15.3121 12.1765L15.0082 11.7794L15.3121 12.1765C15.2861 12.1964 15.2642 12.2213 15.2477 12.2497L14.815 11.9992L15.2481 12.2491C14.5332 13.4881 13.4294 14.4565 12.1079 15.0041C10.7864 15.5516 9.3211 15.6477 7.93943 15.2774C6.55775 14.907 5.33694 14.091 4.46643 12.9559C3.59596 11.8209 3.12443 10.4304 3.125 9L4.67745 13.9476ZM4.67745 13.9476C3.365 12.6351 2.62685 10.8556 2.625 8.9995M4.67745 13.9476L2.625 8.9995M2.625 8.9995L2.125 9M2.625 8.9995L2.125 9M2.125 9H2.625C2.625 8.9337 2.65134 8.87011 2.69822 8.82322M2.125 9L2.69822 8.82322M2.69822 8.82322C2.74511 8.77634 2.8087 8.75 2.875 8.75M2.69822 8.82322L2.875 8.75M2.875 8.75C2.9413 8.75 3.00489 8.77634 3.05178 8.82322M2.875 8.75L3.05178 8.82322M3.05178 8.82322C3.09861 8.87006 3.12494 8.93356 3.125 8.99978L3.05178 8.82322Z" stroke="#111928" stroke-opacity="0.85"/>
</svg>
