<svg width="46" height="47" viewBox="0 0 46 47" fill="none" xmlns="http://www.w3.org/2000/svg">
<rect y="0.104736" width="46" height="46" rx="23" fill="white"/>
<g clip-path="url(#clip0_113_206)">
<rect width="24" height="24" transform="translate(11 11.1047)" fill="white"/>
<path d="M27.0625 25.9172C27.0625 24.255 28.4158 22.9016 30.0781 22.9016C31.7404 22.9016 33.0938 24.255 33.0938 25.9172C33.0938 27.5795 31.7404 28.9329 30.0781 28.9329C28.4158 28.9329 27.0625 27.5795 27.0625 25.9172Z" fill="#797F87" stroke="#797F87"/>
<path d="M12.9062 14.6672C12.9062 12.9963 14.2682 11.6047 15.9219 11.6047C17.5756 11.6047 18.9375 12.9963 18.9375 14.6672C18.9375 16.3295 17.5842 17.6829 15.9219 17.6829C14.2596 17.6829 12.9062 16.3295 12.9062 14.6672Z" fill="#797F87" stroke="#797F87"/>
<path d="M31.6514 16.8318L31.7008 17.2766H32.1484H32.8906C32.9681 17.2766 33.0393 17.3209 33.0738 17.3916C33.1077 17.463 33.0977 17.5465 33.0493 17.6071L30.2375 21.1219C30.2375 21.1219 30.2374 21.122 30.2374 21.122C30.1983 21.1706 30.1399 21.1985 30.0781 21.1985C30.0163 21.1985 29.9579 21.1706 29.9189 21.1221C29.9189 21.122 29.9188 21.122 29.9188 21.1219L27.107 17.6071C27.0585 17.5465 27.0486 17.463 27.0824 17.3916C27.117 17.3209 27.1882 17.2766 27.2656 17.2766H27.9186H28.4955L28.4136 16.7056C28.0369 14.0821 25.7287 12.011 23 12.011C22.8875 12.011 22.7969 11.9204 22.7969 11.8079C22.7969 11.6954 22.8875 11.6047 23 11.6047H25.8594C28.8483 11.6047 31.3278 13.9169 31.6514 16.8318Z" fill="#797F87" stroke="#797F87"/>
<path d="M18.0814 28.9329H17.5045L17.5865 29.5039C17.9631 32.1274 20.2713 34.1985 23 34.1985C23.1125 34.1985 23.2031 34.2891 23.2031 34.4016C23.2031 34.5141 23.1125 34.6048 23 34.6048H20.1406C17.1517 34.6048 14.6723 32.2926 14.3486 29.3777L14.2992 28.9329H13.8517H13.1094C13.032 28.9329 12.9607 28.8886 12.9262 28.8179C12.8924 28.7465 12.9023 28.6631 12.9507 28.6025C12.9507 28.6024 12.9507 28.6024 12.9507 28.6024L15.7625 25.0876C15.7626 25.0876 15.7626 25.0875 15.7627 25.0874C15.7874 25.0568 15.8415 25.0244 15.9219 25.0244C16.0023 25.0244 16.0564 25.0568 16.0811 25.0874C16.0812 25.0875 16.0812 25.0876 16.0813 25.0876L18.893 28.6024C18.9415 28.663 18.9515 28.7465 18.9176 28.8179C18.8831 28.8886 18.8118 28.9329 18.7344 28.9329H18.0814Z" fill="#797F87" stroke="#797F87"/>
<path d="M30.0781 31.3391C31.3663 31.3391 32.5475 30.8842 33.4764 30.1328C34.1128 30.9062 34.5 31.9213 34.5 32.9954V34.4016C34.5 34.5141 34.4094 34.6047 34.2969 34.6047H25.8594C25.7469 34.6047 25.6562 34.5141 25.6562 34.4016V32.9954C25.6562 31.9213 26.0434 30.9062 26.6798 30.1327C27.6087 30.8842 28.7899 31.3391 30.0781 31.3391Z" fill="#797F87" stroke="#797F87"/>
<path d="M15.9219 20.0891C17.2106 20.0891 18.3922 19.6338 19.3213 18.8818C19.9594 19.6484 20.3438 20.6288 20.3438 21.6985V23.1047C20.3438 23.2172 20.2531 23.3079 20.1406 23.3079H11.7031C11.5906 23.3079 11.5 23.2172 11.5 23.1047V21.6985C11.5 20.6288 11.8844 19.6484 12.5224 18.8818C13.4515 19.6338 14.6332 20.0891 15.9219 20.0891Z" fill="#797F87" stroke="#797F87"/>
</g>
<defs>
<clipPath id="clip0_113_206">
<rect width="24" height="24" fill="white" transform="translate(11 11.1047)"/>
</clipPath>
</defs>
</svg>
