<svg width="28" height="28" viewBox="0 0 28 28" fill="none" xmlns="http://www.w3.org/2000/svg">
<rect width="28" height="28" rx="4" fill="#E7EEFF" fill-opacity="0.45"/>
<g clip-path="url(#clip0_24_2583)">
<path d="M10.25 19.1875H6.5C6.24112 19.1875 6.03125 19.3974 6.03125 19.6562V21.5312C6.03125 21.7901 6.24112 22 6.5 22H10.25C10.5089 22 10.7188 21.7901 10.7188 21.5312V19.6562C10.7188 19.3974 10.5089 19.1875 10.25 19.1875ZM9.78125 21.0625H6.96875V20.125H9.78125V21.0625Z" fill="#111928" fill-opacity="0.85"/>
<path d="M15.875 17.3125H12.125C11.8661 17.3125 11.6562 17.5224 11.6562 17.7812V21.5312C11.6562 21.7901 11.8661 22 12.125 22H15.875C16.1339 22 16.3438 21.7901 16.3438 21.5312V17.7812C16.3438 17.5224 16.1339 17.3125 15.875 17.3125ZM15.4062 21.0625H12.5938V20.125H15.4062V21.0625ZM15.4062 19.1875H12.5938V18.25H15.4062V19.1875Z" fill="#111928" fill-opacity="0.85"/>
<path d="M21.5 15.4375H17.75C17.4911 15.4375 17.2812 15.6474 17.2812 15.9062V21.5312C17.2812 21.7901 17.4911 22 17.75 22H21.5C21.7589 22 21.9688 21.7901 21.9688 21.5312V15.9062C21.9688 15.6474 21.7589 15.4375 21.5 15.4375ZM21.0312 21.0625H18.2188V20.125H21.0312V21.0625ZM21.0312 19.1875H18.2188V18.25H21.0312V19.1875ZM21.0312 17.3125H18.2188V16.375H21.0312V17.3125Z" fill="#111928" fill-opacity="0.85"/>
<path d="M6.5 13.1875H11.5C11.7589 13.1875 11.9688 12.9776 11.9688 12.7188V12.0938C11.9688 11.0123 11.3188 10.0804 10.3893 9.66644C10.5962 9.38266 10.7188 9.03356 10.7188 8.65625V7.71875C10.7188 6.77103 9.94772 6 9 6C8.05228 6 7.28125 6.77103 7.28125 7.71875V8.65625C7.28125 9.03356 7.40375 9.38266 7.61069 9.66644C6.68119 10.0804 6.03125 11.0123 6.03125 12.0938V12.7188C6.03125 12.9776 6.24112 13.1875 6.5 13.1875ZM8.21875 7.71875C8.21875 7.28797 8.56922 6.9375 9 6.9375C9.43078 6.9375 9.78125 7.28797 9.78125 7.71875V8.65625C9.78125 9.08703 9.43078 9.4375 9 9.4375C8.56922 9.4375 8.21875 9.08703 8.21875 8.65625V7.71875ZM6.96875 12.0938C6.96875 11.146 7.73978 10.375 8.6875 10.375H9.3125C10.2602 10.375 11.0312 11.146 11.0312 12.0938V12.25H6.96875V12.0938Z" fill="#111928" fill-opacity="0.85"/>
<path d="M7.90625 16.8437V17.4687C7.90625 17.7276 8.11612 17.9375 8.375 17.9375C8.63388 17.9375 8.84375 17.7276 8.84375 17.4687V16.8437C8.84375 16.2406 9.33441 15.75 9.9375 15.75H14C14.2589 15.75 14.4688 15.5401 14.4688 15.2812V14.3437C14.4688 13.7406 14.9594 13.25 15.5625 13.25H19.1183L18.6685 13.6998C18.4855 13.8829 18.4855 14.1796 18.6685 14.3627C18.8516 14.5458 19.1484 14.5458 19.3314 14.3627L20.5814 13.1127C20.7645 12.9296 20.7645 12.6329 20.5814 12.4498L19.3314 11.1998C19.1484 11.0167 18.8516 11.0167 18.6685 11.1998C18.4855 11.3829 18.4855 11.6796 18.6685 11.8627L19.1183 12.3125H15.5625C14.4425 12.3125 13.5312 13.2237 13.5312 14.3437V14.8125H9.9375C8.81747 14.8125 7.90625 15.7237 7.90625 16.8437Z" fill="#111928" fill-opacity="0.85"/>
</g>
<defs>
<clipPath id="clip0_24_2583">
<rect width="15.9375" height="16" fill="white" transform="translate(6.03125 6)"/>
</clipPath>
</defs>
</svg>
