<svg width="44" height="45" viewBox="0 0 44 45" fill="none" xmlns="http://www.w3.org/2000/svg">
<rect y="0.104736" width="44" height="44" rx="22" fill="white"/>
<path d="M14.0781 24.0393V23.5393H13.5781H12.9336C12.1398 23.5393 11.5 22.8995 11.5 22.1057V14.3713C11.5 13.5775 12.1398 12.9377 12.9336 12.9377H24.6211C25.4149 12.9377 26.0547 13.5775 26.0547 14.3713V22.1057C26.0547 22.8995 25.4149 23.5393 24.6211 23.5393H18.4766C18.2425 23.5393 18.0357 23.6107 17.8635 23.7184L17.8634 23.7183L17.853 23.7252C17.6401 23.8658 17.5409 23.9309 17.4419 23.9965C17.1719 24.1751 16.9038 24.3564 14.3392 26.0762C14.3384 26.0765 14.3377 26.0769 14.3369 26.0772C14.3238 26.0832 14.3077 26.0911 14.2898 26.1013C14.2557 26.1154 14.229 26.118 14.2097 26.117C14.1859 26.1158 14.164 26.1086 14.1446 26.0964C14.1051 26.0715 14.0781 26.0277 14.0781 25.9729V24.0393ZM14.2227 20.6721H19.4648C19.8151 20.6721 20.1139 20.5346 20.3196 20.301C20.5167 20.077 20.6037 19.7933 20.6034 19.5269C20.603 19.2605 20.5153 18.9774 20.3184 18.7539C20.1131 18.521 19.8149 18.3831 19.4648 18.3831H14.2227C13.8724 18.3831 13.5735 18.5205 13.3679 18.7541C13.1708 18.9782 13.0838 19.2618 13.0841 19.5283C13.0845 19.7947 13.1722 20.0778 13.3691 20.3012C13.5744 20.5342 13.8726 20.6721 14.2227 20.6721ZM14.2227 18.094H23.332C23.6823 18.094 23.9811 17.9565 24.1867 17.7229C24.3839 17.4989 24.4709 17.2152 24.4706 16.9488C24.4702 16.6824 24.3825 16.3993 24.1856 16.1758C23.9803 15.9428 23.6821 15.8049 23.332 15.8049H14.2227C13.8724 15.8049 13.5735 15.9424 13.3679 16.176C13.1708 16.4 13.0838 16.6837 13.0841 16.9501C13.0845 17.2165 13.1722 17.4997 13.3691 17.7231C13.5744 17.9561 13.8726 18.094 14.2227 18.094Z" fill="#70757E" stroke="#70757E"/>
<path d="M25.9948 28.78L25.8686 28.6956H25.7168H19.3789C18.5851 28.6956 17.9453 28.0557 17.9453 27.262V26.4089L18.8206 25.8284H24.6211C26.6761 25.8284 28.3438 24.1608 28.3438 22.1057V18.094H31.0664C31.8602 18.094 32.5 18.7338 32.5 19.5276V27.262C32.5 28.0557 31.8602 28.6956 31.0664 28.6956H30.4219H29.9219V29.1956V31.1292C29.9219 31.1905 29.8922 31.2325 29.8557 31.2538C29.8374 31.2646 29.8145 31.2718 29.7863 31.2718C29.7612 31.2718 29.7233 31.2661 29.6738 31.2412L25.9948 28.78Z" fill="#70757E" stroke="#70757E"/>
</svg>
