<svg width="19" height="18" viewBox="0 0 19 18" fill="none" xmlns="http://www.w3.org/2000/svg">
<g clip-path="url(#clip0_24_8256)">
<mask id="path-1-inside-1_24_8256" fill="white">
<path fill-rule="evenodd" clip-rule="evenodd" d="M16.4816 4.10436L16.8518 5.48586C16.9012 5.67023 16.8982 5.86468 16.8433 6.04747C16.7884 6.23025 16.6837 6.39416 16.541 6.52086L16.4912 6.56264C16.2459 6.75402 16.0613 7.0125 15.96 7.3067C15.8587 7.60089 15.845 7.91817 15.9205 8.22003C15.9959 8.52189 16.1574 8.79536 16.3853 9.00724C16.6131 9.21913 16.8976 9.36033 17.2041 9.41371L17.2736 9.42432C17.4677 9.44973 17.65 9.53215 17.7973 9.66117C17.9447 9.79019 18.0504 9.96001 18.1012 10.1491L18.4783 11.5557C18.522 11.7188 18.5332 11.8889 18.5112 12.0564C18.4892 12.2238 18.4344 12.3852 18.35 12.5315C18.2656 12.6778 18.1532 12.806 18.0192 12.9088C17.8853 13.0116 17.7324 13.087 17.5693 13.1307L4.52891 16.6246C4.19956 16.7128 3.84867 16.6665 3.55343 16.496C3.25819 16.3255 3.04277 16.0447 2.95455 15.7153L2.60002 14.392C2.54736 14.195 2.54938 13.9875 2.60584 13.7916C2.6623 13.5957 2.77108 13.4189 2.92048 13.2802L2.97288 13.2352C3.21309 13.0392 3.39151 12.7779 3.48664 12.4829C3.58176 12.1878 3.58954 11.8716 3.50903 11.5722C3.42852 11.2728 3.26316 11.0031 3.03288 10.7956C2.80259 10.588 2.5172 10.4515 2.21109 10.4024C1.99938 10.3683 1.80206 10.2736 1.6429 10.1299C1.48373 9.98622 1.36951 9.79956 1.31398 9.59243L0.95784 8.26396C0.914148 8.10084 0.90302 7.93071 0.92509 7.76328C0.947161 7.59586 1.002 7.43442 1.08647 7.28819C1.17094 7.14196 1.28339 7.01381 1.4174 6.91105C1.55141 6.80829 1.70435 6.73293 1.86748 6.68929L14.9069 3.19536C15.07 3.15161 15.2401 3.14041 15.4075 3.16242C15.575 3.18443 15.7364 3.2392 15.8827 3.32361C16.0289 3.40802 16.1571 3.52042 16.2599 3.65438C16.3627 3.78834 16.4382 3.94124 16.4819 4.10436M15.1431 4.29946L2.21495 7.7635C2.03655 7.81139 1.93048 7.99493 1.97838 8.17332L2.23263 9.1225C2.78244 9.23327 3.2904 9.49537 3.69928 9.87927C4.10817 10.2632 4.40173 10.7536 4.54691 11.2954C4.69211 11.8371 4.68314 12.4087 4.52101 12.9456C4.35887 13.4826 4.05001 13.9636 3.62923 14.3345L3.88348 15.2836C3.9317 15.462 4.11491 15.5681 4.2933 15.5202L17.2212 12.0562C17.3996 12.0083 17.5056 11.8247 17.4577 11.6464L17.2038 10.6975C16.654 10.5867 16.146 10.3246 15.7371 9.9406C15.3282 9.55664 15.0346 9.06613 14.8895 8.52432C14.7443 7.98258 14.7532 7.41104 14.9153 6.87409C15.0774 6.33714 15.3862 5.85612 15.8069 5.48521L15.5526 4.53604C15.5413 4.49357 15.5217 4.45376 15.4949 4.41888C15.4682 4.384 15.4348 4.35473 15.3968 4.33276C15.3587 4.31079 15.3167 4.29653 15.2731 4.29082C15.2295 4.28511 15.1856 4.28805 15.1431 4.29946ZM14.7304 11.2291C14.7632 11.3515 14.7715 11.479 14.755 11.6046C14.7384 11.7301 14.6973 11.8512 14.634 11.9609C14.5706 12.0705 14.4863 12.1666 14.3858 12.2437C14.2853 12.3208 14.1707 12.3773 14.0483 12.4101C13.926 12.4428 13.7984 12.4512 13.6729 12.4346C13.5473 12.4181 13.4263 12.377 13.3166 12.3136C13.207 12.2503 13.1108 12.166 13.0338 12.0655C12.9567 11.965 12.9002 11.8503 12.8674 11.728C12.8013 11.481 12.836 11.2177 12.9639 10.9963C13.0918 10.7748 13.3024 10.6132 13.5495 10.5471C13.7965 10.4809 14.0597 10.5156 14.2812 10.6435C14.5027 10.7714 14.6643 10.9821 14.7304 11.2291ZM14.0651 8.74514C14.1312 8.99219 14.0966 9.25542 13.9687 9.47692C13.8408 9.69841 13.6302 9.86004 13.3831 9.92623C13.1361 9.99243 12.8729 9.95777 12.6514 9.82989C12.4299 9.70201 12.2682 9.49137 12.2021 9.24432C12.1396 8.99857 12.1765 8.73811 12.3047 8.51936C12.4329 8.3006 12.6421 8.14114 12.887 8.0755C13.132 8.00987 13.3929 8.04334 13.6133 8.16867C13.8337 8.294 13.9962 8.50111 14.0651 8.74514ZM13.3991 6.26146C13.4318 6.38379 13.4402 6.51137 13.4237 6.63693C13.4071 6.76249 13.366 6.88356 13.3027 6.99324C13.2394 7.10291 13.1551 7.19904 13.0546 7.27613C12.9541 7.35323 12.8395 7.40978 12.7171 7.44255C12.5948 7.47533 12.4672 7.48369 12.3417 7.46716C12.2161 7.45063 12.095 7.40953 11.9854 7.34621C11.8757 7.28289 11.7796 7.19859 11.7025 7.09811C11.6254 6.99764 11.5688 6.88297 11.5361 6.76064C11.4699 6.51359 11.5045 6.25037 11.6324 6.02887C11.7603 5.80737 11.9709 5.64575 12.218 5.57955C12.465 5.51336 12.7282 5.54801 12.9497 5.6759C13.1712 5.80378 13.3329 6.01442 13.3991 6.26146ZM10.0681 2.04046L10.8884 3.21175C10.9004 3.22911 10.9118 3.24668 10.9228 3.26446L3.07509 5.36725L8.27741 1.7245C8.55674 1.52903 8.90227 1.45251 9.23802 1.51176C9.57376 1.57101 9.87254 1.76119 10.0681 2.04046Z"/>
</mask>
<path fill-rule="evenodd" clip-rule="evenodd" d="M16.4816 4.10436L16.8518 5.48586C16.9012 5.67023 16.8982 5.86468 16.8433 6.04747C16.7884 6.23025 16.6837 6.39416 16.541 6.52086L16.4912 6.56264C16.2459 6.75402 16.0613 7.0125 15.96 7.3067C15.8587 7.60089 15.845 7.91817 15.9205 8.22003C15.9959 8.52189 16.1574 8.79536 16.3853 9.00724C16.6131 9.21913 16.8976 9.36033 17.2041 9.41371L17.2736 9.42432C17.4677 9.44973 17.65 9.53215 17.7973 9.66117C17.9447 9.79019 18.0504 9.96001 18.1012 10.1491L18.4783 11.5557C18.522 11.7188 18.5332 11.8889 18.5112 12.0564C18.4892 12.2238 18.4344 12.3852 18.35 12.5315C18.2656 12.6778 18.1532 12.806 18.0192 12.9088C17.8853 13.0116 17.7324 13.087 17.5693 13.1307L4.52891 16.6246C4.19956 16.7128 3.84867 16.6665 3.55343 16.496C3.25819 16.3255 3.04277 16.0447 2.95455 15.7153L2.60002 14.392C2.54736 14.195 2.54938 13.9875 2.60584 13.7916C2.6623 13.5957 2.77108 13.4189 2.92048 13.2802L2.97288 13.2352C3.21309 13.0392 3.39151 12.7779 3.48664 12.4829C3.58176 12.1878 3.58954 11.8716 3.50903 11.5722C3.42852 11.2728 3.26316 11.0031 3.03288 10.7956C2.80259 10.588 2.5172 10.4515 2.21109 10.4024C1.99938 10.3683 1.80206 10.2736 1.6429 10.1299C1.48373 9.98622 1.36951 9.79956 1.31398 9.59243L0.95784 8.26396C0.914148 8.10084 0.90302 7.93071 0.92509 7.76328C0.947161 7.59586 1.002 7.43442 1.08647 7.28819C1.17094 7.14196 1.28339 7.01381 1.4174 6.91105C1.55141 6.80829 1.70435 6.73293 1.86748 6.68929L14.9069 3.19536C15.07 3.15161 15.2401 3.14041 15.4075 3.16242C15.575 3.18443 15.7364 3.2392 15.8827 3.32361C16.0289 3.40802 16.1571 3.52042 16.2599 3.65438C16.3627 3.78834 16.4382 3.94124 16.4819 4.10436M15.1431 4.29946L2.21495 7.7635C2.03655 7.81139 1.93048 7.99493 1.97838 8.17332L2.23263 9.1225C2.78244 9.23327 3.2904 9.49537 3.69928 9.87927C4.10817 10.2632 4.40173 10.7536 4.54691 11.2954C4.69211 11.8371 4.68314 12.4087 4.52101 12.9456C4.35887 13.4826 4.05001 13.9636 3.62923 14.3345L3.88348 15.2836C3.9317 15.462 4.11491 15.5681 4.2933 15.5202L17.2212 12.0562C17.3996 12.0083 17.5056 11.8247 17.4577 11.6464L17.2038 10.6975C16.654 10.5867 16.146 10.3246 15.7371 9.9406C15.3282 9.55664 15.0346 9.06613 14.8895 8.52432C14.7443 7.98258 14.7532 7.41104 14.9153 6.87409C15.0774 6.33714 15.3862 5.85612 15.8069 5.48521L15.5526 4.53604C15.5413 4.49357 15.5217 4.45376 15.4949 4.41888C15.4682 4.384 15.4348 4.35473 15.3968 4.33276C15.3587 4.31079 15.3167 4.29653 15.2731 4.29082C15.2295 4.28511 15.1856 4.28805 15.1431 4.29946ZM14.7304 11.2291C14.7632 11.3515 14.7715 11.479 14.755 11.6046C14.7384 11.7301 14.6973 11.8512 14.634 11.9609C14.5706 12.0705 14.4863 12.1666 14.3858 12.2437C14.2853 12.3208 14.1707 12.3773 14.0483 12.4101C13.926 12.4428 13.7984 12.4512 13.6729 12.4346C13.5473 12.4181 13.4263 12.377 13.3166 12.3136C13.207 12.2503 13.1108 12.166 13.0338 12.0655C12.9567 11.965 12.9002 11.8503 12.8674 11.728C12.8013 11.481 12.836 11.2177 12.9639 10.9963C13.0918 10.7748 13.3024 10.6132 13.5495 10.5471C13.7965 10.4809 14.0597 10.5156 14.2812 10.6435C14.5027 10.7714 14.6643 10.9821 14.7304 11.2291ZM14.0651 8.74514C14.1312 8.99219 14.0966 9.25542 13.9687 9.47692C13.8408 9.69841 13.6302 9.86004 13.3831 9.92623C13.1361 9.99243 12.8729 9.95777 12.6514 9.82989C12.4299 9.70201 12.2682 9.49137 12.2021 9.24432C12.1396 8.99857 12.1765 8.73811 12.3047 8.51936C12.4329 8.3006 12.6421 8.14114 12.887 8.0755C13.132 8.00987 13.3929 8.04334 13.6133 8.16867C13.8337 8.294 13.9962 8.50111 14.0651 8.74514ZM13.3991 6.26146C13.4318 6.38379 13.4402 6.51137 13.4237 6.63693C13.4071 6.76249 13.366 6.88356 13.3027 6.99324C13.2394 7.10291 13.1551 7.19904 13.0546 7.27613C12.9541 7.35323 12.8395 7.40978 12.7171 7.44255C12.5948 7.47533 12.4672 7.48369 12.3417 7.46716C12.2161 7.45063 12.095 7.40953 11.9854 7.34621C11.8757 7.28289 11.7796 7.19859 11.7025 7.09811C11.6254 6.99764 11.5688 6.88297 11.5361 6.76064C11.4699 6.51359 11.5045 6.25037 11.6324 6.02887C11.7603 5.80737 11.9709 5.64575 12.218 5.57955C12.465 5.51336 12.7282 5.54801 12.9497 5.6759C13.1712 5.80378 13.3329 6.01442 13.3991 6.26146ZM10.0681 2.04046L10.8884 3.21175C10.9004 3.22911 10.9118 3.24668 10.9228 3.26446L3.07509 5.36725L8.27741 1.7245C8.55674 1.52903 8.90227 1.45251 9.23802 1.51176C9.57376 1.57101 9.87254 1.76119 10.0681 2.04046Z" fill="black"/>
<path d="M16.8518 5.48586L17.8179 5.22747L17.8177 5.22696L16.8518 5.48586ZM16.541 6.52086L17.1836 7.28704L17.1944 7.27803L17.2049 7.26872L16.541 6.52086ZM16.4912 6.56264L17.1063 7.35111L17.1202 7.34022L17.1338 7.32883L16.4912 6.56264ZM17.2041 9.41371L17.0326 10.3989L17.0428 10.4007L17.0531 10.4022L17.2041 9.41371ZM17.2736 9.42432L17.1225 10.4129L17.1332 10.4145L17.1438 10.4159L17.2736 9.42432ZM18.1012 10.1491L19.0671 9.89023L19.067 9.88974L18.1012 10.1491ZM18.4783 11.5557L17.5124 11.8146L17.5124 11.8148L18.4783 11.5557ZM17.5693 13.1307L17.8281 14.0966L17.8281 14.0966L17.5693 13.1307ZM4.52891 16.6246L4.78747 17.5906L4.78771 17.5906L4.52891 16.6246ZM2.95455 15.7153L3.9205 15.4566L3.92049 15.4565L2.95455 15.7153ZM2.60002 14.392L1.63395 14.6503L1.63408 14.6508L2.60002 14.392ZM2.92048 13.2802L2.26893 12.5216L2.25426 12.5342L2.24008 12.5473L2.92048 13.2802ZM2.97288 13.2352L2.34073 12.4603L2.33092 12.4683L2.32132 12.4766L2.97288 13.2352ZM2.21109 10.4024L2.05184 11.3897L2.05285 11.3898L2.21109 10.4024ZM1.31398 9.59243L2.27988 9.33351L2.27988 9.33349L1.31398 9.59243ZM0.95784 8.26396L-0.00811088 8.52269L-0.00805271 8.52291L0.95784 8.26396ZM1.86748 6.68929L2.12593 7.65531L2.1263 7.65521L1.86748 6.68929ZM14.9069 3.19536L15.1657 4.16128L15.166 4.16121L14.9069 3.19536ZM15.1431 4.29946L15.4019 5.26539L15.4029 5.26512L15.1431 4.29946ZM2.21495 7.7635L1.95613 6.79757L1.95566 6.7977L2.21495 7.7635ZM1.97838 8.17332L2.94432 7.91458L2.94418 7.91403L1.97838 8.17332ZM2.23263 9.1225L1.26668 9.38124L1.42715 9.98031L2.03512 10.1028L2.23263 9.1225ZM4.54691 11.2954L3.58099 11.5542L3.581 11.5542L4.54691 11.2954ZM3.62923 14.3345L2.96802 13.5843L2.50285 13.9943L2.66329 14.5932L3.62923 14.3345ZM3.88348 15.2836L2.91753 15.5424L2.91812 15.5446L3.88348 15.2836ZM4.2933 15.5202L4.03448 14.5543L4.03402 14.5544L4.2933 15.5202ZM17.2212 12.0562L17.48 13.0221L17.4804 13.022L17.2212 12.0562ZM17.4577 11.6464L16.4917 11.9049L16.4919 11.9056L17.4577 11.6464ZM17.2038 10.6975L18.1698 10.439L18.0094 9.83974L17.4013 9.7172L17.2038 10.6975ZM14.8895 8.52432L15.8555 8.26558L15.8554 8.26537L14.8895 8.52432ZM15.8069 5.48521L16.4682 6.23533L16.9332 5.82534L16.7728 5.22647L15.8069 5.48521ZM15.5526 4.53604L14.5865 4.794L14.5867 4.79478L15.5526 4.53604ZM14.7304 11.2291L13.7644 11.4878L14.7304 11.2291ZM12.8674 11.728L11.9014 11.9867L12.8674 11.728ZM14.0651 8.74514L15.0311 8.48631L15.0275 8.47367L14.0651 8.74514ZM12.2021 9.24432L11.2327 9.49053L11.2361 9.50314L12.2021 9.24432ZM13.3991 6.26146L14.365 6.00265L13.3991 6.26146ZM11.5361 6.76064L12.502 6.50183L11.5361 6.76064ZM10.0681 2.04046L9.24893 2.61403L9.24898 2.61411L10.0681 2.04046ZM10.8884 3.21175L11.7109 2.64306L11.7075 2.63811L10.8884 3.21175ZM10.9228 3.26446L11.1816 4.23039L12.4767 3.88335L11.7748 2.74094L10.9228 3.26446ZM3.07509 5.36725L2.50151 4.5481L3.33391 6.33318L3.07509 5.36725ZM8.27741 1.7245L7.70407 0.905183L7.70383 0.905351L8.27741 1.7245ZM15.5156 4.36325L15.8859 5.74475L17.8177 5.22696L17.4475 3.84546L15.5156 4.36325ZM15.8858 5.74425C15.8872 5.74937 15.8871 5.75477 15.8856 5.75985L17.8011 6.33509C17.9093 5.97459 17.9151 5.59109 17.8179 5.22747L15.8858 5.74425ZM15.8856 5.75985C15.884 5.76492 15.8811 5.76948 15.8772 5.77299L17.2049 7.26872C17.4864 7.01885 17.6928 6.69558 17.8011 6.33509L15.8856 5.75985ZM15.8984 5.75467L15.8486 5.79646L17.1338 7.32883L17.1836 7.28704L15.8984 5.75467ZM15.8761 5.77417C15.4782 6.08461 15.1789 6.50388 15.0145 6.9811L16.9055 7.63229C16.9438 7.52112 17.0136 7.42344 17.1063 7.35111L15.8761 5.77417ZM15.0145 6.9811C14.8502 7.45831 14.8279 7.97297 14.9503 8.46262L16.8906 7.97745C16.8621 7.86337 16.8673 7.74347 16.9055 7.63229L15.0145 6.9811ZM14.9503 8.46262C15.0728 8.95227 15.3347 9.39585 15.7043 9.73955L17.0662 8.27493C16.9801 8.19486 16.9191 8.09152 16.8906 7.97745L14.9503 8.46262ZM15.7043 9.73955C16.0739 10.0833 16.5353 10.3123 17.0326 10.3989L17.3757 8.42854C17.2598 8.40837 17.1523 8.35501 17.0662 8.27493L15.7043 9.73955ZM17.0531 10.4022L17.1225 10.4129L17.4246 8.43579L17.3552 8.42518L17.0531 10.4022ZM17.1438 10.4159C17.1419 10.4156 17.14 10.4148 17.1385 10.4135L18.4562 8.90887C18.16 8.64952 17.7936 8.48384 17.4033 8.43277L17.1438 10.4159ZM17.1385 10.4135C17.137 10.4122 17.136 10.4105 17.1355 10.4085L19.067 9.88974C18.9649 9.50956 18.7523 9.16821 18.4562 8.90887L17.1385 10.4135ZM17.1353 10.4081L17.5124 11.8146L19.4442 11.2968L19.0671 9.89023L17.1353 10.4081ZM17.5124 11.8148C17.5221 11.851 17.5246 11.8888 17.5197 11.9261L19.5027 12.1867C19.5418 11.889 19.5219 11.5866 19.4441 11.2966L17.5124 11.8148ZM17.5197 11.9261C17.5148 11.9633 17.5027 11.9991 17.4839 12.0316L19.2161 13.0314C19.3662 12.7714 19.4636 12.4843 19.5027 12.1867L17.5197 11.9261ZM17.4839 12.0316C17.4652 12.0641 17.4402 12.0926 17.4104 12.1155L18.6281 13.7021C18.8662 13.5193 19.0661 13.2914 19.2161 13.0314L17.4839 12.0316ZM17.4104 12.1155C17.3806 12.1383 17.3467 12.1551 17.3104 12.1648L17.8281 14.0966C18.1181 14.0189 18.3899 13.8848 18.6281 13.7021L17.4104 12.1155ZM17.3105 12.1648L4.27011 15.6587L4.78771 17.5906L17.8281 14.0966L17.3105 12.1648ZM4.27036 15.6586C4.19717 15.6782 4.11919 15.668 4.05358 15.6301L3.05328 17.3619C3.57815 17.6651 4.20195 17.7474 4.78747 17.5906L4.27036 15.6586ZM4.05358 15.6301C3.98798 15.5922 3.9401 15.5298 3.9205 15.4566L1.98861 15.9741C2.14544 16.5596 2.52841 17.0588 3.05328 17.3619L4.05358 15.6301ZM3.92049 15.4565L3.56595 14.1332L1.63408 14.6508L1.98862 15.9741L3.92049 15.4565ZM3.56609 14.1337C3.56037 14.1123 3.56059 14.0898 3.56672 14.0685L1.64496 13.5146C1.53816 13.8851 1.53436 14.2778 1.63395 14.6503L3.56609 14.1337ZM3.56672 14.0685C3.57285 14.0473 3.58466 14.0281 3.60088 14.013L2.24008 12.5473C1.9575 12.8097 1.75175 13.1441 1.64496 13.5146L3.56672 14.0685ZM3.57204 14.0388L3.62443 13.9938L2.32132 12.4766L2.26893 12.5216L3.57204 14.0388ZM3.60502 14.01C3.99467 13.6921 4.28409 13.2684 4.43839 12.7897L2.53488 12.176C2.49893 12.2875 2.4315 12.3863 2.34073 12.4603L3.60502 14.01ZM4.43839 12.7897C4.5927 12.3111 4.60532 11.7981 4.47472 11.3125L2.54334 11.8319C2.57377 11.945 2.57083 12.0645 2.53488 12.176L4.43839 12.7897ZM4.47472 11.3125C4.34413 10.8269 4.0759 10.3894 3.70235 10.0527L2.3634 11.5384C2.45043 11.6168 2.51292 11.7187 2.54334 11.8319L4.47472 11.3125ZM3.70235 10.0527C3.3288 9.71606 2.86587 9.4946 2.36933 9.41503L2.05285 11.3898C2.16853 11.4084 2.27638 11.46 2.3634 11.5384L3.70235 10.0527ZM2.37034 9.41519C2.34899 9.41175 2.3291 9.4022 2.31305 9.38771L0.972741 10.8722C1.27502 11.1451 1.64977 11.3248 2.05184 11.3897L2.37034 9.41519ZM2.31305 9.38771C2.297 9.37322 2.28548 9.3544 2.27988 9.33351L0.348083 9.85134C0.45353 10.2447 0.670458 10.5992 0.972741 10.8722L2.31305 9.38771ZM2.27988 9.33349L1.92373 8.00502L-0.00805271 8.52291L0.34809 9.85137L2.27988 9.33349ZM1.92379 8.00524C1.91408 7.96899 1.91161 7.93118 1.91651 7.89398L-0.0663328 7.63259C-0.105569 7.93023 -0.0857852 8.23269 -0.00811088 8.52269L1.92379 8.00524ZM1.91651 7.89398C1.92142 7.85677 1.9336 7.8209 1.95238 7.7884L0.220563 6.78799C0.0703917 7.04795 -0.0270963 7.33495 -0.0663328 7.63259L1.91651 7.89398ZM1.95238 7.7884C1.97115 7.75591 1.99614 7.72743 2.02592 7.70459L0.808884 6.11751C0.570649 6.30019 0.370735 6.52802 0.220563 6.78799L1.95238 7.7884ZM2.02592 7.70459C2.0557 7.68175 2.08968 7.66501 2.12593 7.65531L1.60903 5.72326C1.31901 5.80085 1.04712 5.93482 0.808884 6.11751L2.02592 7.70459ZM2.1263 7.65521L15.1657 4.16128L14.6481 2.22943L1.60866 5.72336L2.1263 7.65521ZM15.166 4.16121C15.2022 4.15149 15.24 4.149 15.2772 4.15389L15.5378 2.17095C15.2402 2.13183 14.9378 2.15172 14.6478 2.2295L15.166 4.16121ZM15.2772 4.15389C15.3144 4.15878 15.3503 4.17096 15.3828 4.18971L16.3825 2.45751C16.1225 2.30744 15.8355 2.21007 15.5378 2.17095L15.2772 4.15389ZM15.3828 4.18971C15.4153 4.20847 15.4438 4.23345 15.4666 4.26322L17.0532 3.04554C16.8704 2.80739 16.6425 2.60757 16.3825 2.45751L15.3828 4.18971ZM15.4666 4.26322C15.4895 4.29299 15.5062 4.32697 15.516 4.36321L17.4478 3.8455C17.3701 3.55552 17.236 3.2837 17.0532 3.04554L15.4666 4.26322ZM14.8843 3.33354L1.95613 6.79757L2.47376 8.72943L15.4019 5.26539L14.8843 3.33354ZM1.95566 6.7977C1.24491 6.98851 0.821203 7.71978 1.01258 8.43261L2.94418 7.91403C3.03976 8.27008 2.8282 8.63427 2.47423 8.7293L1.95566 6.7977ZM1.01243 8.43206L1.26668 9.38124L3.19857 8.86376L2.94432 7.91458L1.01243 8.43206ZM2.03512 10.1028C2.40238 10.1768 2.74168 10.3519 3.0148 10.6083L4.38376 9.15024C3.83911 8.63888 3.1625 8.28975 2.43013 8.1422L2.03512 10.1028ZM3.0148 10.6083C3.28793 10.8647 3.48402 11.1923 3.58099 11.5542L5.51283 11.0365C5.31945 10.3149 4.92841 9.6616 4.38376 9.15024L3.0148 10.6083ZM3.581 11.5542C3.67799 11.9161 3.672 12.2979 3.5637 12.6566L5.47831 13.2347C5.69428 12.5195 5.70624 11.7581 5.51282 11.0365L3.581 11.5542ZM3.5637 12.6566C3.45539 13.0152 3.24909 13.3365 2.96802 13.5843L4.29045 15.0847C4.85094 14.5906 5.26235 13.9499 5.47831 13.2347L3.5637 12.6566ZM2.66329 14.5932L2.91754 15.5424L4.84943 15.0249L4.59518 14.0757L2.66329 14.5932ZM2.91812 15.5446C3.10945 16.2525 3.83844 16.6777 4.55259 16.486L4.03402 14.5544C4.39138 14.4585 4.75395 14.6716 4.84885 15.0227L2.91812 15.5446ZM4.55213 16.4861L17.48 13.0221L16.9623 11.0903L4.03448 14.5543L4.55213 16.4861ZM17.4804 13.022C18.1912 12.8312 18.6149 12.0999 18.4235 11.3871L16.4919 11.9056C16.3963 11.5496 16.6079 11.1854 16.9619 11.0904L17.4804 13.022ZM18.4237 11.3878L18.1698 10.439L16.2378 10.956L16.4917 11.9049L18.4237 11.3878ZM17.4013 9.7172C17.0341 9.64319 16.6947 9.46809 16.4216 9.21161L15.0525 10.6696C15.5972 11.181 16.2738 11.5302 17.0063 11.6778L17.4013 9.7172ZM16.4216 9.21161C16.1485 8.95514 15.9524 8.62749 15.8555 8.26558L13.9236 8.78306C14.1169 9.50476 14.5079 10.1581 15.0525 10.6696L16.4216 9.21161ZM15.8554 8.26537C15.7584 7.9035 15.7644 7.52173 15.8726 7.16306L13.9579 6.58512C13.742 7.30035 13.7302 8.06165 13.9236 8.78327L15.8554 8.26537ZM15.8726 7.16306C15.9809 6.8044 16.1871 6.48309 16.4682 6.23533L15.1456 4.73509C14.5852 5.22915 14.1738 5.86989 13.9579 6.58512L15.8726 7.16306ZM16.7728 5.22647L16.5186 4.27729L14.5867 4.79478L14.8409 5.74396L16.7728 5.22647ZM16.5188 4.27807C16.4735 4.10858 16.3953 3.94967 16.2885 3.81044L14.7013 5.02732C14.6481 4.95785 14.609 4.87857 14.5865 4.794L16.5188 4.27807ZM16.2885 3.81044C16.1818 3.67121 16.0486 3.5544 15.8967 3.4667L14.8968 5.19882C14.821 5.15506 14.7546 5.09678 14.7013 5.02732L16.2885 3.81044ZM15.8967 3.4667C15.7448 3.37899 15.577 3.32211 15.4031 3.2993L15.1431 5.28234C15.0563 5.27096 14.9726 5.24258 14.8968 5.19882L15.8967 3.4667ZM15.4031 3.2993C15.2288 3.27646 15.0524 3.28831 14.8833 3.3338L15.4029 5.26512C15.3187 5.28778 15.2302 5.29376 15.1431 5.28234L15.4031 3.2993ZM13.7644 11.4878C13.7632 11.4833 13.7629 11.4786 13.7635 11.4739L15.7464 11.7353C15.7801 11.4795 15.7631 11.2197 15.6964 10.9705L13.7644 11.4878ZM13.7635 11.4739C13.7641 11.4693 13.7657 11.4648 13.768 11.4607L15.4999 12.461C15.6289 12.2376 15.7127 11.991 15.7464 11.7353L13.7635 11.4739ZM13.768 11.4607C13.7704 11.4567 13.7735 11.4531 13.7772 11.4503L14.9945 13.0372C15.1991 12.8802 15.3709 12.6844 15.4999 12.461L13.768 11.4607ZM13.7772 11.4503C13.7809 11.4474 13.7852 11.4453 13.7897 11.4441L14.307 13.376C14.5562 13.3093 14.7898 13.1942 14.9945 13.0372L13.7772 11.4503ZM13.7897 11.4441C13.7942 11.4429 13.7989 11.4426 13.8036 11.4432L13.5422 13.426C13.7979 13.4598 14.0578 13.4428 14.307 13.376L13.7897 11.4441ZM13.8036 11.4432C13.8082 11.4438 13.8127 11.4453 13.8168 11.4477L12.8165 13.1796C13.0398 13.3086 13.2864 13.3923 13.5422 13.426L13.8036 11.4432ZM13.8168 11.4477C13.8208 11.45 13.8244 11.4531 13.8272 11.4569L12.2403 12.6741C12.3973 12.8788 12.5931 13.0505 12.8165 13.1796L13.8168 11.4477ZM13.8272 11.4569C13.8301 11.4606 13.8322 11.4648 13.8334 11.4693L11.9014 11.9867C11.9682 12.2358 12.0833 12.4694 12.2403 12.6741L13.8272 11.4569ZM13.8334 11.4693C13.8358 11.4785 13.8345 11.4882 13.8298 11.4964L12.0979 10.4961C11.8374 10.9473 11.7667 11.4834 11.9014 11.9867L13.8334 11.4693ZM13.8298 11.4964C13.8251 11.5046 13.8173 11.5106 13.8081 11.513L13.2908 9.5811C12.7876 9.71585 12.3585 10.045 12.0979 10.4961L13.8298 11.4964ZM13.8081 11.513C13.799 11.5155 13.7893 11.5142 13.7811 11.5095L14.7814 9.77759C14.3302 9.51703 13.7941 9.44635 13.2908 9.5811L13.8081 11.513ZM13.7811 11.5095C13.7729 11.5047 13.7669 11.4969 13.7644 11.4878L15.6964 10.9705C15.5616 10.4672 15.2325 10.0381 14.7814 9.77759L13.7811 11.5095ZM13.0991 9.00396C13.0967 8.99483 13.098 8.9851 13.1027 8.97691L14.8347 9.97692C15.0952 9.52574 15.1658 8.98956 15.031 8.48633L13.0991 9.00396ZM13.1027 8.97691C13.1074 8.96872 13.1152 8.96275 13.1243 8.9603L13.642 10.8922C14.1452 10.7573 14.5742 10.4281 14.8347 9.97692L13.1027 8.97691ZM13.1243 8.9603C13.1335 8.95786 13.1432 8.95914 13.1514 8.96387L12.1514 10.6959C12.6025 10.9564 13.1387 11.027 13.642 10.8922L13.1243 8.9603ZM13.1514 8.96387C13.1596 8.96859 13.1655 8.97638 13.168 8.98551L11.2361 9.50314C11.371 10.0064 11.7002 10.4354 12.1514 10.6959L13.1514 8.96387ZM13.1713 8.99813C13.1736 9.00723 13.1722 9.01688 13.1675 9.02498L11.442 8.01373C11.1808 8.45935 11.1057 8.9899 11.2328 9.49051L13.1713 8.99813ZM13.1675 9.02498C13.1627 9.03308 13.155 9.03899 13.1459 9.04142L12.6282 7.10959C12.1293 7.24329 11.7031 7.56811 11.442 8.01373L13.1675 9.02498ZM13.1459 9.04142C13.1368 9.04385 13.1272 9.04261 13.119 9.03797L14.1076 7.29937C13.6586 7.04407 13.1271 6.97589 12.6282 7.10959L13.1459 9.04142ZM13.119 9.03797C13.1115 9.03369 13.1054 9.02636 13.1026 9.01662L15.0275 8.47367C14.8871 7.97585 14.5559 7.55432 14.1076 7.29937L13.119 9.03797ZM12.4331 6.52028C12.4319 6.51576 12.4316 6.51104 12.4322 6.5064L14.4151 6.76746C14.4488 6.51171 14.4317 6.25182 14.365 6.00265L12.4331 6.52028ZM12.4322 6.5064C12.4328 6.50176 12.4343 6.49729 12.4367 6.49323L14.1687 7.49324C14.2977 7.26984 14.3814 7.02322 14.4151 6.76746L12.4322 6.5064ZM12.4367 6.49323C12.439 6.48918 12.4421 6.48563 12.4459 6.48278L13.6634 8.06949C13.868 7.91245 14.0398 7.71664 14.1687 7.49324L12.4367 6.49323ZM12.4459 6.48278C12.4496 6.47993 12.4538 6.47784 12.4583 6.47663L12.976 8.40848C13.2251 8.34172 13.4587 8.22653 13.6634 8.06949L12.4459 6.48278ZM12.4583 6.47663C12.4628 6.47541 12.4676 6.47511 12.4722 6.47572L12.2111 8.4586C12.4669 8.49228 12.7268 8.47524 12.976 8.40848L12.4583 6.47663ZM12.4722 6.47572C12.4768 6.47633 12.4813 6.47785 12.4854 6.48019L11.4854 8.21223C11.7088 8.34121 11.9554 8.42493 12.2111 8.4586L12.4722 6.47572ZM12.4854 6.48019C12.4894 6.48253 12.493 6.48564 12.4958 6.48936L10.9091 7.70687C11.0662 7.91153 11.262 8.08325 11.4854 8.21223L12.4854 6.48019ZM12.4958 6.48936C12.4987 6.49307 12.5008 6.49731 12.502 6.50183L10.5701 7.01946C10.6369 7.26863 10.7521 7.50221 10.9091 7.70687L12.4958 6.48936ZM12.502 6.50183C12.5044 6.51096 12.5031 6.52069 12.4984 6.52887L10.7664 5.52887C10.5059 5.98005 10.4353 6.51623 10.5701 7.01946L12.502 6.50183ZM12.4984 6.52887C12.4937 6.53706 12.4859 6.54303 12.4768 6.54548L11.9592 4.61363C11.4559 4.74846 11.0269 5.07769 10.7664 5.52887L12.4984 6.52887ZM12.4768 6.54548C12.4676 6.54793 12.4579 6.54665 12.4497 6.54192L13.4497 4.80987C12.9986 4.54938 12.4624 4.47879 11.9592 4.61363L12.4768 6.54548ZM12.4497 6.54192C12.4415 6.53719 12.4356 6.52941 12.4331 6.52028L14.365 6.00265C14.2301 5.49942 13.9009 5.07037 13.4497 4.80987L12.4497 6.54192ZM9.24898 2.61411L10.0693 3.78539L11.7075 2.63811L10.8872 1.46682L9.24898 2.61411ZM10.0658 3.78043C10.0677 3.78317 10.0693 3.78569 10.0708 3.78799L11.7748 2.74094C11.7543 2.70767 11.733 2.67505 11.7109 2.64307L10.0658 3.78043ZM10.6639 2.29854L2.81627 4.40132L3.33391 6.33318L11.1816 4.23039L10.6639 2.29854ZM3.64867 6.1864L8.85099 2.54365L7.70383 0.905351L2.50151 4.5481L3.64867 6.1864ZM8.85075 2.54382C8.91283 2.50038 8.98961 2.48337 9.06422 2.49654L9.41181 0.526977C8.81494 0.42164 8.20066 0.557681 7.70407 0.905183L8.85075 2.54382ZM9.06422 2.49654C9.1392 2.50977 9.20569 2.55227 9.24893 2.61403L10.8872 1.4669C10.5394 0.970101 10.0083 0.63225 9.41181 0.526977L9.06422 2.49654Z" fill="black" mask="url(#path-1-inside-1_24_8256)"/>
</g>
<defs>
<clipPath id="clip0_24_8256">
<rect width="18" height="18" fill="white" transform="translate(0.625)"/>
</clipPath>
</defs>
</svg>
