<svg width="20" height="20" viewBox="0 0 20 20" fill="none" xmlns="http://www.w3.org/2000/svg">
<path fill-rule="evenodd" clip-rule="evenodd" d="M4.41098 9.75582C4.25475 9.59955 4.16699 9.38762 4.16699 9.16665C4.16699 8.94568 4.25475 8.73376 4.41098 8.57749L9.41098 3.57748C9.56725 3.42126 9.77918 3.3335 10.0001 3.3335C10.2211 3.3335 10.433 3.42126 10.5893 3.57748L15.5893 8.57749C15.7411 8.73465 15.8251 8.94516 15.8232 9.16365C15.8213 9.38215 15.7337 9.59116 15.5792 9.74567C15.4247 9.90017 15.2156 9.98781 14.9971 9.98971C14.7787 9.99161 14.5681 9.90762 14.411 9.75582L10.8335 6.17832V15.8333C10.8335 16.0543 10.7457 16.2663 10.5894 16.4226C10.4331 16.5789 10.2212 16.6667 10.0001 16.6667C9.77913 16.6667 9.56717 16.5789 9.41089 16.4226C9.25461 16.2663 9.16681 16.0543 9.16681 15.8333V6.17832L5.58931 9.75582C5.43304 9.91204 5.22112 9.99981 5.00015 9.99981C4.77918 9.99981 4.56725 9.91204 4.41098 9.75582Z" fill="#111928" fill-opacity="0.6"/>
</svg>
