<svg width="20" height="20" viewBox="0 0 20 20" fill="none" xmlns="http://www.w3.org/2000/svg">
<path d="M6.24987 12.7083C6.09154 12.7083 5.9332 12.65 5.8082 12.525C5.56654 12.2833 5.56654 11.8833 5.8082 11.6416L8.47487 8.97495C8.6082 8.84162 8.7832 8.77495 8.97487 8.79162C9.1582 8.80828 9.32487 8.90828 9.4332 9.06662L10.3415 10.4333L13.2999 7.47495C13.5415 7.23328 13.9415 7.23328 14.1832 7.47495C14.4249 7.71662 14.4249 8.11662 14.1832 8.35828L10.6832 11.8583C10.5499 11.9916 10.3749 12.0583 10.1832 12.0416C9.99987 12.025 9.8332 11.925 9.72487 11.7666L8.81654 10.4L6.69154 12.525C6.56654 12.65 6.4082 12.7083 6.24987 12.7083Z" fill="#1255FE"/>
<path d="M13.7502 10.2084C13.4085 10.2084 13.1252 9.92508 13.1252 9.58342V8.54175H12.0835C11.7418 8.54175 11.4585 8.25841 11.4585 7.91675C11.4585 7.57508 11.7418 7.29175 12.0835 7.29175H13.7502C14.0918 7.29175 14.3752 7.57508 14.3752 7.91675V9.58342C14.3752 9.92508 14.0918 10.2084 13.7502 10.2084Z" fill="#1255FE"/>
<path d="M12.4998 18.9584H7.49984C2.97484 18.9584 1.0415 17.0251 1.0415 12.5001V7.50008C1.0415 2.97508 2.97484 1.04175 7.49984 1.04175H12.4998C17.0248 1.04175 18.9582 2.97508 18.9582 7.50008V12.5001C18.9582 17.0251 17.0248 18.9584 12.4998 18.9584ZM7.49984 2.29175C3.65817 2.29175 2.2915 3.65841 2.2915 7.50008V12.5001C2.2915 16.3417 3.65817 17.7084 7.49984 17.7084H12.4998C16.3415 17.7084 17.7082 16.3417 17.7082 12.5001V7.50008C17.7082 3.65841 16.3415 2.29175 12.4998 2.29175H7.49984Z" fill="#1255FE"/>
</svg>
